<svg width="75" height="75" viewBox="0 0 75 75" fill="none" xmlns="http://www.w3.org/2000/svg">
<g clip-path="url(#clip0_644_195)">
<path opacity="0.974" fill-rule="evenodd" clip-rule="evenodd" d="M16.6254 -0.0732422C17.553 -0.0732422 18.4809 -0.0732422 19.4086 -0.0732422C23.0568 1.06673 24.7413 3.55696 24.4623 7.39746C23.6945 10.8511 21.5461 12.6577 18.017 12.8174C14.422 12.6406 12.2736 10.7851 11.5716 7.25098C11.3915 3.50358 13.0761 1.06218 16.6254 -0.0732422Z" fill="#FF7300"/>
<path opacity="0.975" fill-rule="evenodd" clip-rule="evenodd" d="M50.6113 -0.0732422C51.539 -0.0732422 52.4668 -0.0732422 53.3945 -0.0732422C57.1562 1.13083 58.8408 3.71873 58.4482 7.69043C57.0956 11.7976 54.2881 13.4333 50.0254 12.5977C47.1959 11.4991 45.6823 9.42394 45.4844 6.37207C45.7334 3.03347 47.4424 0.885035 50.6113 -0.0732422Z" fill="#FF7300"/>
<path opacity="0.89" fill-rule="evenodd" clip-rule="evenodd" d="M27.613 3.58907C28.0415 3.58318 28.432 3.70526 28.7849 3.95528C29.4578 4.68886 29.7263 5.54336 29.5905 6.51876C29.0381 7.1469 28.379 7.26896 27.613 6.88497C27.24 6.35909 26.9226 5.79756 26.6608 5.2004C26.5316 4.38584 26.8491 3.84873 27.613 3.58907Z" fill="#FF7300"/>
<path opacity="0.894" fill-rule="evenodd" clip-rule="evenodd" d="M33.4701 4.46777C34.7164 4.51654 35.1803 5.1513 34.8617 6.37207C34.3928 6.8901 33.8801 7.35397 33.3236 7.76367C31.973 7.97565 31.4115 7.41413 31.639 6.0791C32.1573 5.42027 32.7677 4.88316 33.4701 4.46777Z" fill="#FF7300"/>
<path opacity="0.922" fill-rule="evenodd" clip-rule="evenodd" d="M27.4664 9.30221C28.9417 9.15834 30.3088 9.47571 31.568 10.2544C31.9158 10.553 32.2087 10.8948 32.4469 11.2798C36.8258 11.9262 41.1958 12.5854 45.5573 13.2573C45.7423 12.9208 46.0109 12.7988 46.3629 12.8911C46.9489 13.3305 47.5348 13.77 48.1207 14.2094C47.779 14.6489 47.4371 15.0883 47.0953 15.5278C46.7482 15.6796 46.382 15.7528 45.9967 15.7475C41.0836 15.0806 36.1764 14.3725 31.275 13.6235C30.7947 13.1432 30.3063 12.6549 29.8102 12.1587C29.3961 11.9209 28.9566 11.75 28.4918 11.646C28.309 11.7251 28.1381 11.8228 27.9791 11.9389C27.5261 13.1886 27.4283 14.4582 27.6862 15.7475C27.7594 16.016 27.9304 16.187 28.1989 16.2602C29.3111 16.0922 30.4342 16.0434 31.568 16.1137C35.7725 17.4421 39.9718 18.7847 44.1657 20.1421C44.3272 18.9135 45.0109 18.4497 46.2164 18.7505C46.777 19.235 46.948 19.8453 46.7291 20.5815C46.3308 21.1997 45.8181 21.6881 45.191 22.0464C43.9515 21.7146 42.7308 21.3239 41.5289 20.8745C40.6163 19.2711 39.2492 18.6608 37.4274 19.0434C36.7968 19.3464 36.1864 19.6636 35.5963 19.9956C34.1039 19.5431 32.6148 19.0793 31.1285 18.604C30.2674 18.5609 29.4129 18.6341 28.5651 18.8237C26.8566 18.7743 25.7337 17.9442 25.1959 16.3335C24.882 14.3797 25.0773 12.4754 25.7819 10.6206C26.2481 10.0291 26.8096 9.58965 27.4664 9.30221Z" fill="#FF7300"/>
<path opacity="0.937" fill-rule="evenodd" clip-rule="evenodd" d="M69.6543 74.9268C68.9707 74.9268 68.2872 74.9268 67.6035 74.9268C66.8274 74.5485 66.1683 74.0115 65.626 73.3154C61.2877 67.4634 56.8932 61.6528 52.4424 55.8838C51.2975 51.356 50.1988 46.8149 49.1465 42.2607C48.3698 42.0904 47.5885 42.0661 46.8027 42.1875C45.3067 44.0808 43.7929 45.9606 42.2617 47.8271C42.0366 46.8778 41.7436 45.9501 41.3828 45.0439C42.3019 43.7574 43.254 42.4878 44.2393 41.2354C44.2637 39.0365 44.337 36.8392 44.459 34.6436C45.2125 34.9516 45.9694 35.2446 46.7295 35.5225C46.8027 36.9376 46.8271 38.3537 46.8027 39.7705C51.4415 39.7705 56.08 39.7705 60.7188 39.7705C60.7432 31.8602 60.7188 23.95 60.6455 16.04C60.0559 14.4248 58.9085 13.5215 57.2031 13.3301C57.9647 12.7146 58.6727 12.0554 59.3271 11.3525C61.1318 11.9854 62.3526 13.2061 62.9893 15.0146C63.1822 23.1135 63.2797 31.219 63.2822 39.3311C63.4513 44.0685 63.6465 48.8048 63.8682 53.54C66.4677 58.3975 69.1044 63.2314 71.7783 68.042C73.4774 71.1511 72.7694 73.4461 69.6543 74.9268ZM51.7832 42.1143C54.8106 42.1143 57.8378 42.1143 60.8652 42.1143C61.0398 46.1172 61.2108 50.1211 61.3779 54.126C64.2566 59.4924 67.1375 64.8636 70.0205 70.2393C70.454 71.8359 69.8437 72.5439 68.1895 72.3633C63.6906 66.4175 59.1741 60.4849 54.6396 54.5654C53.6219 50.4283 52.6697 46.2779 51.7832 42.1143Z" fill="#FF7300"/>
<path opacity="0.925" fill-rule="evenodd" clip-rule="evenodd" d="M12.6699 13.4033C13.6149 13.8999 14.5914 14.3638 15.5996 14.7949C14.3798 15.2203 13.5253 16.026 13.0361 17.2119C11.2295 22.876 9.42282 28.54 7.61618 34.2041C7.51852 34.4971 7.51852 34.79 7.61618 35.083C8.03122 35.6934 8.54391 36.2061 9.15427 36.6211C12.3769 39.0625 15.5996 41.5039 18.8222 43.9453C19.1152 44.7265 19.4082 45.5079 19.7011 46.2891C20.3014 46.7118 20.9362 46.7606 21.6054 46.4355C22.4035 45.4988 23.1114 44.4978 23.7295 43.4326C23.7586 41.8315 22.9774 41.2456 21.3857 41.6748C21.1474 41.6565 20.9277 41.5832 20.7265 41.4551C18.3583 39.1846 15.9903 36.9141 13.622 34.6436C13.2051 34.1253 13.0586 33.5394 13.1826 32.8857C13.9839 30.6284 14.814 28.3822 15.6728 26.1475C16.47 25.3506 17.2024 25.3994 17.8701 26.2939C17.9678 26.6357 17.9678 26.9776 17.8701 27.3193C17.2354 29.0771 16.6005 30.835 15.9658 32.5928C15.8681 32.837 15.8681 33.081 15.9658 33.3252C17.8499 35.2582 19.7786 37.1382 21.7519 38.9648C24.9362 39.0725 26.4255 40.7083 26.2197 43.8721C25.5179 45.6398 24.4682 47.1779 23.0703 48.4863C21.2945 49.4372 19.5854 49.3395 17.9433 48.1934C17.2896 47.3985 16.8501 46.4952 16.625 45.4834C13.0152 42.7282 9.4263 39.945 5.85837 37.1338C5.06693 35.9593 4.87162 34.6898 5.27243 33.3252C7.15796 27.1803 9.15992 21.0768 11.2783 15.0146C11.7181 14.4531 12.182 13.9159 12.6699 13.4033Z" fill="#FF7300"/>
<path opacity="0.907" fill-rule="evenodd" clip-rule="evenodd" d="M30.1035 20.7275C30.2988 20.7275 30.4942 20.7275 30.6895 20.7275C31.0192 22.2662 31.3609 23.8043 31.7148 25.3418C31.2276 26.3193 30.6172 27.2227 29.8838 28.0518C29.2321 25.7377 28.6706 23.394 28.1992 21.0205C28.873 21.0527 29.5078 20.9552 30.1035 20.7275Z" fill="#FF7300"/>
<path opacity="0.962" fill-rule="evenodd" clip-rule="evenodd" d="M37.7187 21.0206C38.4563 20.8744 39.0667 21.0696 39.5498 21.6065C40.2182 25.5217 39.6323 29.2328 37.792 32.7393C36.3592 34.8068 34.8701 36.8333 33.3242 38.8184C32.3016 39.4865 31.2762 39.4865 30.248 38.8184C29.7969 38.483 29.333 38.1655 28.8564 37.8663C28.4921 38.2045 28.1992 38.5952 27.9775 39.0382C27.8145 39.3061 27.5948 39.4282 27.3184 39.4044C26.8789 38.7696 26.3417 38.2325 25.707 37.793C29.6943 32.185 33.6983 26.5942 37.7187 21.0206Z" fill="#FF7300"/>
<path opacity="0.917" fill-rule="evenodd" clip-rule="evenodd" d="M48.9981 21.4601C50.3465 21.417 50.8592 22.0519 50.5362 23.3644C49.4375 24.5607 48.3389 25.7569 47.2403 26.9532C46.6726 27.1759 46.0867 27.2248 45.4825 27.0997C44.369 26.7667 43.2704 26.4005 42.1866 26.0011C42.0889 25.1222 42.0889 24.2433 42.1866 23.3644C43.4655 23.7744 44.7349 24.2138 45.9952 24.6827C46.9659 23.5637 47.9668 22.4894 48.9981 21.4601Z" fill="#FF7300"/>
<path opacity="0.921" fill-rule="evenodd" clip-rule="evenodd" d="M56.4707 23.5107C57.7146 23.5532 58.1784 24.1881 57.8623 25.415C55.3965 27.7833 52.9306 30.1513 50.4648 32.5195C49.4078 33.2728 48.2359 33.5168 46.9492 33.252C44.9351 32.5815 42.982 31.8003 41.0898 30.9082C41.3008 30.137 41.5448 29.3801 41.8223 28.6377C43.6615 29.3864 45.517 30.0943 47.3887 30.7617C47.7793 30.8594 48.1699 30.8594 48.5605 30.7617C50.5625 28.8574 52.5644 26.9531 54.5664 25.0488C55.1895 24.4964 55.8244 23.9837 56.4707 23.5107Z" fill="#FF7300"/>
<path opacity="0.927" fill-rule="evenodd" clip-rule="evenodd" d="M41.2363 74.9268C40.5527 74.9268 39.8692 74.9268 39.1855 74.9268C38.2081 74.613 37.4024 74.0271 36.7686 73.1689C34.4162 67.1859 32.1212 61.1801 29.8838 55.1514C29.1134 54.4794 28.4542 53.7227 27.9062 52.8809C28.097 51.9939 28.3655 51.1395 28.7119 50.3174C29.8883 51.4449 31.0114 52.6167 32.0811 53.833C34.3353 59.8551 36.6303 65.861 38.9658 71.8506C40.005 72.7912 40.9814 72.6936 41.8955 71.5576C41.9932 71.0694 41.9932 70.581 41.8955 70.0928C40.3819 62.6708 38.8681 55.2491 37.3545 47.8271C35.8718 45.6693 34.3337 43.5453 32.7402 41.4551C33.5135 41.1661 34.2459 40.7999 34.9375 40.3564C36.6042 42.3902 38.1912 44.4898 39.6982 46.6553C41.3342 54.7371 42.9698 62.8181 44.6055 70.8984C44.3003 72.936 43.1772 74.2789 41.2363 74.9268Z" fill="#FF7300"/>
<path opacity="0.923" fill-rule="evenodd" clip-rule="evenodd" d="M7.39802 74.9268C6.66559 74.9268 5.93317 74.9268 5.20075 74.9268C2.79565 73.9997 1.8435 72.2418 2.34431 69.6533C2.50758 69.0338 2.75172 68.4479 3.07673 67.8955C6.20172 63.0127 9.32673 58.1298 12.4517 53.2471C12.6884 50.7069 12.9326 48.1679 13.1841 45.6299C13.71 46.0027 14.2227 46.3934 14.7222 46.8018C14.8823 47.381 15.1265 47.918 15.4547 48.4131C15.2579 50.2623 15.087 52.1178 14.942 53.9795C11.6094 59.3265 8.24029 64.6488 4.83454 69.9463C4.40741 71.3383 4.8957 72.2172 6.29938 72.583C6.89787 72.4789 7.38615 72.1859 7.76423 71.7041C12.8424 65.4541 17.9204 59.2042 22.9986 52.9541C23.2412 52.2275 23.4609 51.4951 23.6578 50.7568C24.9895 49.816 26.0638 48.6441 26.8804 47.2412C26.9781 47.0459 27.0757 47.0459 27.1734 47.2412C26.5892 49.3336 26.0278 51.4333 25.4888 53.54C25.2819 54.0031 25.0377 54.4425 24.7564 54.8584C19.6295 61.1572 14.5025 67.4561 9.37556 73.7549C8.76193 74.2516 8.10275 74.6423 7.39802 74.9268Z" fill="#FF7300"/>
<path opacity="0.903" fill-rule="evenodd" clip-rule="evenodd" d="M48.708 50.9033C48.8671 50.9209 48.9648 51.0186 49.001 51.1963C49.1779 51.9835 49.3732 52.7648 49.5869 53.54C48.8605 54.1929 48.1525 54.8766 47.4629 55.5908C46.6212 57.2256 45.7423 58.8369 44.8262 60.4248C44.4132 59.1904 44.1692 57.9209 44.0938 56.6162C44.5446 55.6654 45.033 54.7375 45.5586 53.833C46.6373 52.876 47.687 51.8994 48.708 50.9033Z" fill="#FF7300"/>
</g>
<defs>
<clipPath id="clip0_644_195">
<rect width="75" height="75" fill="white"/>
</clipPath>
</defs>
</svg>
