<svg width="68" height="68" viewBox="0 0 68 68" fill="none" xmlns="http://www.w3.org/2000/svg">
<g clip-path="url(#clip0_644_160)">
<path opacity="0.939" fill-rule="evenodd" clip-rule="evenodd" d="M35.793 -0.0664062C36.4128 -0.0664062 37.0325 -0.0664062 37.6523 -0.0664062C44.2664 2.0625 51.0398 3.54556 57.9727 4.38281C59.0573 4.75911 59.7878 5.48958 60.1641 6.57422C60.7682 9.47773 61.4765 12.3553 62.2891 15.207C63.9104 19.8053 65.3714 24.4537 66.6719 29.1523C67.2072 31.3634 67.6279 33.577 67.9336 35.793C67.9336 37.6523 67.9336 39.5117 67.9336 41.3711C67.4593 45.1847 66.264 48.7706 64.3477 52.1289C64.9531 54.8683 64.6211 57.4802 63.3516 59.9648C62.6478 60.845 61.7845 61.5312 60.7617 62.0234C54.9542 64.3518 48.9777 64.9051 42.832 63.6836C39.0381 66.1878 34.8767 67.6045 30.3477 67.9336C28.6211 67.9336 26.8945 67.9336 25.168 67.9336C20.9356 67.4451 16.9734 66.117 13.2812 63.9492C9.61629 66.2404 5.65405 67.1036 1.39453 66.5391C0.735283 66.1242 0.248304 65.5707 -0.0664062 64.8789C-0.0664062 53.3242 -0.0664062 41.7695 -0.0664062 30.2148C0.29954 29.4281 0.87506 28.8304 1.66016 28.4219C5.94632 27.9244 9.90856 28.8319 13.5469 31.1445C17.9399 28.6455 22.6548 27.6938 27.6914 28.2891C33.1297 28.7943 37.9109 30.8086 42.0352 34.332C42.8635 32.5415 43.8596 30.8591 45.0234 29.2852C45.6069 28.1987 46.0053 27.0478 46.2188 25.832C46.2852 24.0174 46.3073 22.2024 46.2852 20.3867C42.699 20.4089 39.113 20.3867 35.5273 20.3203C32.8953 19.4619 31.8548 17.669 32.4062 14.9414C32.5716 14.4783 32.7708 14.0355 33.0039 13.6133C32.1852 11.6218 31.3663 9.62957 30.5469 7.63672C30.3504 6.56346 30.5718 5.58949 31.2109 4.71484C32.3785 3.23708 33.596 1.79827 34.8633 0.398438C35.1854 0.237388 35.4953 0.0824403 35.793 -0.0664062ZM36.3242 2.32422C36.6373 2.30253 36.9471 2.32467 37.2539 2.39062C43.7211 4.40126 50.3173 5.81793 57.043 6.64062C57.3548 6.68656 57.5983 6.8415 57.7734 7.10547C58.4662 10.275 59.2631 13.4182 60.1641 16.5352C62.1524 22.0129 63.7904 27.591 65.0781 33.2695C66.5801 40.9408 64.8978 47.8028 60.0312 53.8555C59.782 54.8016 60.1362 55.3772 61.0938 55.582C61.5018 55.5108 61.856 55.3337 62.1562 55.0508C62.2223 56.3804 61.9124 57.62 61.2266 58.7695C60.0034 59.7836 58.6088 60.4698 57.043 60.8281C52.1929 62.2033 47.3232 62.2917 42.4336 61.0938C40.7353 60.5544 39.1416 59.8018 37.6523 58.8359C36.2934 58.8273 35.8728 59.4692 36.3906 60.7617C37.405 61.5903 38.534 62.2322 39.7773 62.6875C34.5711 65.3224 29.0814 66.1635 23.3086 65.2109C17.8835 63.9814 13.0579 61.5907 8.83203 58.0391C7.73751 57.4138 7.02918 57.7016 6.70703 58.9023C6.71726 59.1413 6.78366 59.3627 6.90625 59.5664C8.08406 60.6528 9.34578 61.6269 10.6914 62.4883C8.16893 63.8604 5.4684 64.5024 2.58984 64.4141C2.52344 64.3477 2.45703 64.2812 2.39062 64.2148C2.30208 53.1028 2.30208 41.9909 2.39062 30.8789C5.56939 30.4495 8.55767 31.0694 11.3555 32.7383C9.44592 34.4055 7.96284 36.3977 6.90625 38.7148C6.38006 39.8504 6.71209 40.5588 7.90234 40.8398C8.28221 40.7495 8.61425 40.5725 8.89844 40.3086C10.7596 35.836 14.0134 32.8919 18.6602 31.4766C26.382 29.4439 33.4211 30.8164 39.7773 35.5938C40.2895 36.0055 40.7765 36.4481 41.2383 36.9219C40.4908 40.1844 40.5572 43.4383 41.4375 46.6836C41.7216 47.4289 42.0758 48.1374 42.5 48.8086C42.9984 49.5561 43.6847 49.8881 44.5586 49.8047C45.3375 49.407 45.5368 48.8094 45.1562 48.0117C44.1968 47.1113 43.6213 46.0045 43.4297 44.6914C42.7057 41.2917 43.0599 38.0156 44.4922 34.8633C45.2193 33.2976 46.1048 31.8366 47.1484 30.4805C47.9008 29.1086 48.3878 27.6477 48.6094 26.0977C48.6758 24.1502 48.698 22.2023 48.6758 20.2539C50.4417 19.8828 51.8362 18.9531 52.8594 17.4648C53.463 16.192 53.9721 14.886 54.3867 13.5469C54.3305 12.8044 53.9321 12.3838 53.1914 12.2852C52.8108 12.3758 52.4787 12.5529 52.1953 12.8164C51.7342 13.9782 51.2473 15.1293 50.7344 16.2695C50.195 16.9874 49.5088 17.4965 48.6758 17.7969C44.4322 18.0143 40.1822 18.0585 35.9258 17.9297C34.674 17.3528 34.342 16.4452 34.9297 15.207C35.1346 14.9576 35.3781 14.7584 35.6602 14.6094C38.7099 14.2676 41.7646 13.9578 44.8242 13.6797C46.5261 13.0436 47.2122 11.8262 46.8828 10.0273C46.7265 9.24443 46.3945 8.55822 45.8867 7.96875C44.8884 7.58621 44.2687 7.91824 44.0273 8.96484C44.2552 9.66741 44.4102 10.3757 44.4922 11.0898C44.0381 11.3971 43.529 11.53 42.9648 11.4883C42.6648 11.484 42.3771 11.4397 42.1016 11.3555C41.6242 10.1572 41.0266 9.02825 40.3086 7.96875C38.9779 7.61713 38.3803 8.12624 38.5156 9.49609C38.875 10.237 39.2513 10.9674 39.6445 11.6875C38.1488 11.8395 36.6658 12.0387 35.1953 12.2852C34.3493 10.5042 33.5746 8.68909 32.8711 6.83984C33.893 5.24046 35.0439 3.73526 36.3242 2.32422Z" fill="#FF7300"/>
<path opacity="0.932" fill-rule="evenodd" clip-rule="evenodd" d="M10.8224 42.9651C11.1354 42.9434 11.4453 42.9655 11.7521 43.0315C18.2895 47.5134 25.3286 48.4873 32.8693 45.9534C34.3905 45.3476 35.8958 44.7057 37.3849 44.0276C38.3809 44.2932 38.7129 44.913 38.381 45.8869C37.2994 46.6826 36.1262 47.3245 34.8615 47.8127C27.0379 50.7798 19.4676 50.2485 12.1505 46.219C11.4969 45.7703 10.8549 45.3055 10.2248 44.8244C9.90676 44.0298 10.106 43.4101 10.8224 42.9651Z" fill="#FF7300"/>
</g>
<defs>
<clipPath id="clip0_644_160">
<rect width="68" height="68" fill="white"/>
</clipPath>
</defs>
</svg>
