<svg width="75" height="75" viewBox="0 0 75 75" fill="none" xmlns="http://www.w3.org/2000/svg">
<path opacity="0.943" fill-rule="evenodd" clip-rule="evenodd" d="M34.4961 1.09839C35.0056 1.05213 35.4939 1.12538 35.9609 1.31812C37.0373 2.198 37.8917 3.24781 38.5244 4.46753C38.7263 5.552 38.5798 6.57739 38.085 7.5437C37.6205 8.08139 37.1078 8.56968 36.5469 9.00854C36.8381 10.0268 37.1066 11.0522 37.3525 12.0847C37.7976 12.4806 38.1882 12.9201 38.5244 13.4031C38.5209 14.8877 38.3255 16.3525 37.9385 17.7976C37.5834 19.4709 36.5825 20.5208 34.9355 20.947C43.3829 20.9958 51.83 21.0447 60.2773 21.0935C60.7199 21.3189 60.9151 21.6852 60.8633 22.1921C64.3304 22.1677 67.7973 22.1921 71.2637 22.2654C73.1983 22.9836 74.0283 24.3752 73.7539 26.4402C74.0007 29.048 72.8778 30.7326 70.3848 31.4939C68.4542 31.892 66.8429 31.355 65.5508 29.8826C65.226 29.6958 64.8841 29.5493 64.5254 29.4431C63.3123 29.2546 62.0917 29.1813 60.8633 29.2234C60.8901 29.5802 60.7924 29.8977 60.5703 30.1755C53.2776 32.1879 45.9778 34.1655 38.6709 36.1082C38.1969 39.9071 37.855 43.7157 37.6455 47.5339C39.8428 49.3405 42.04 51.1473 44.2373 52.9539C44.7179 54.0047 44.4494 54.7859 43.4316 55.2976C45.6296 56.8839 47.8514 58.4463 50.0967 59.9851C51.0608 64.353 51.9153 68.7475 52.6602 73.1687C52.6295 73.3876 52.5318 73.5585 52.3672 73.6814C51.7489 73.7661 51.1385 73.8881 50.5361 74.0476C50.423 74.0264 50.3253 73.9776 50.2432 73.9011C49.5244 69.7834 48.7432 65.6819 47.8994 61.5964C45.6431 59.9744 43.3481 58.412 41.0146 56.9089C38.7364 58.5734 36.2706 59.9161 33.6172 60.9373C35.8632 62.5974 38.1094 64.2576 40.3555 65.9177C40.5399 66.0616 40.7352 66.1104 40.9414 66.0642C41.4075 65.5736 41.8957 65.1097 42.4062 64.6726C43.228 65.1251 43.7896 65.76 44.0908 66.5769C43.4804 67.1873 42.8702 67.7976 42.2598 68.408C42.6854 70.1212 43.0272 71.8546 43.2852 73.6082C42.5038 73.7794 41.7225 73.9014 40.9414 73.9744C40.5421 72.198 40.1514 70.4157 39.7695 68.6277C36.633 66.271 33.4591 63.9762 30.248 61.7429C28.8875 61.9405 27.5204 62.087 26.1465 62.1824C25.6039 64.4016 24.9937 66.5989 24.3154 68.7742C22.3867 70.7029 20.4581 72.6315 18.5293 74.5603C17.8016 74.1528 17.1667 73.5912 16.625 72.8757C18.4785 70.949 20.3583 69.0447 22.2646 67.1628C22.7265 65.4134 23.1415 63.6556 23.5098 61.8894C21.8054 61.6587 20.1453 61.2436 18.5293 60.6443C17.0697 59.9873 15.6537 59.3037 14.2812 58.5935C13.7628 60.398 13.3966 62.2291 13.1826 64.0867C13.7197 64.6238 14.2568 65.1608 14.7939 65.698C14.3864 66.4257 13.8248 67.0606 13.1094 67.6023C12.6478 67.2141 12.2083 66.799 11.791 66.3572C11.6934 66.2595 11.5957 66.2595 11.498 66.3572C8.76367 69.0916 6.0293 71.8259 3.29492 74.5603C3.19726 74.658 3.09961 74.658 3.00195 74.5603C2.48926 74.0476 1.97656 73.5349 1.46387 73.0222C1.36621 72.9245 1.36621 72.827 1.46387 72.7292C4.54423 69.6978 7.57158 66.6216 10.5459 63.5007C11.0408 61.2695 11.5535 59.0479 12.084 56.8357C11.582 56.5726 11.1181 56.2552 10.6924 55.8835C10.4751 55.4145 10.4263 54.9261 10.5459 54.4187C12.1242 51.311 13.6623 48.1859 15.1602 45.0437C15.1443 44.9057 15.0956 44.7837 15.0137 44.6775C13.3779 44.3113 11.7422 43.9451 10.1064 43.5789C9.57244 43.7214 9.10858 43.9899 8.71484 44.3845C8.16639 44.5206 7.6537 44.4474 7.17676 44.1648C5.48565 40.8803 3.87433 37.56 2.34277 34.2039C1.86455 31.7917 2.52373 29.7654 4.32031 28.1248C10.1279 23.7956 16.6708 21.403 23.9492 20.947C24.3942 20.5511 24.7849 20.1116 25.1211 19.6287C21.8568 17.0167 20.5142 13.6232 21.0928 9.448C21.6493 6.353 23.4315 4.37546 26.4395 3.51538C28.3498 3.49748 30.254 3.39983 32.1523 3.22241C32.4081 3.15343 32.6523 3.05577 32.8848 2.92944C33.4776 2.34377 34.0147 1.73341 34.4961 1.09839ZM35.082 4.32104C35.9371 4.61478 36.2545 5.20071 36.0342 6.07886C35.4484 6.54295 34.8137 6.93358 34.1299 7.25073C33.373 8.49585 32.6163 9.74097 31.8594 10.9861C31.5214 10.892 31.1795 10.7455 30.834 10.5466C29.0287 10.1191 27.7348 10.7294 26.9521 12.3777C26.5666 14.3688 27.0305 16.1267 28.3437 17.6511C28.0856 18.2337 27.695 18.3559 27.1719 18.0173C23.7122 15.4848 22.7111 12.1888 24.1689 8.12964C25.0086 6.72043 26.2537 5.96359 27.9043 5.85913C29.4668 5.81031 31.0292 5.76147 32.5918 5.71265C33.5639 5.47153 34.394 5.00768 35.082 4.32104ZM34.4961 11.4988C34.7847 12.2061 35.0532 12.9385 35.3018 13.696C35.5703 13.9646 35.8389 14.2332 36.1074 14.5017C35.8582 15.6002 35.5897 16.6988 35.3018 17.7976C35.1308 17.9686 34.96 18.1394 34.7891 18.3103C34.1634 18.4969 33.5532 18.7167 32.958 18.9695C32.3529 20.9507 31.8157 22.9525 31.3467 24.9753C30.7553 23.3781 30.1449 21.7912 29.5156 20.2146C30.126 19.6042 30.7363 18.9939 31.3467 18.3835C31.5639 17.9145 31.6128 17.4261 31.4932 16.9187C30.8916 16.4185 30.3056 15.8814 29.7353 15.3074C29.4868 14.7436 29.316 14.1576 29.2227 13.5496C29.3231 13.0371 29.6161 12.8663 30.1016 13.0369C30.3138 13.6314 30.4848 14.2418 30.6143 14.8679C31.4929 15.3633 32.2253 15.2168 32.8115 14.4285C33.4064 13.4683 33.9679 12.4917 34.4961 11.4988ZM27.0254 21.3132C27.2085 21.3245 27.3305 21.4222 27.3916 21.6062C28.3682 24.2429 29.3447 26.8796 30.3213 29.5164C30.419 30.493 30.419 31.4694 30.3213 32.446C28.8951 29.1197 27.4547 25.7993 26 22.4851C26.3451 22.0917 26.6869 21.701 27.0254 21.3132ZM34.3496 23.364C34.889 23.3398 35.426 23.3642 35.9609 23.4373C34.8542 26.1708 33.8045 28.9295 32.8115 31.7136C32.7138 30.9324 32.7138 30.1511 32.8115 29.3699C33.3025 27.3566 33.8152 25.3547 34.3496 23.364ZM38.5977 23.364C45.2382 23.364 51.8789 23.364 58.5195 23.364C58.5665 25.0117 58.5176 26.6475 58.373 28.2712C51.0386 30.1474 43.7388 32.125 36.4736 34.2039C36.3474 34.4363 36.2497 34.6805 36.1807 34.9363C35.8099 38.9896 35.4437 43.0423 35.082 47.0945C34.3013 47.2653 33.5444 47.5093 32.8115 47.8269C32.7138 44.8484 32.7138 41.8698 32.8115 38.8914C34.7829 33.7285 36.7117 28.5528 38.5977 23.364ZM23.0703 23.5105C23.4022 23.4579 23.6707 23.5556 23.876 23.8035C25.9959 28.8447 28.1444 33.8741 30.3213 38.8914C30.3945 42.1136 30.419 45.3362 30.3945 48.5593C28.301 48.9969 26.2013 49.1189 24.0957 48.9255C21.5847 48.476 19.4851 47.3041 17.7969 45.4099C17.8946 45.3855 17.9921 45.3611 18.0898 45.3367C19.5052 45.8 20.9211 46.2639 22.3379 46.7283C26.3438 47.2625 28.2236 45.5292 27.9775 41.5281C27.5853 40.2569 26.7796 39.3535 25.5605 38.8181C23.7642 38.6316 21.9575 38.5339 20.1406 38.5251C19.2723 38.2112 18.3934 37.9426 17.5039 37.7195C17.5284 35.8634 17.5039 34.0079 17.4307 32.1531C17.3759 32.0189 17.3026 31.8967 17.2109 31.7869C16.6925 31.5666 16.1555 31.5178 15.5996 31.6404C14.3301 31.9578 13.0606 32.2751 11.791 32.5925C10.7367 32.2654 9.68686 31.9237 8.6416 31.5671C8.17477 32.2842 7.8818 33.0654 7.7627 33.9109C8.79906 34.3052 9.84887 34.6714 10.9121 35.0095C11.6934 35.7907 12.4746 36.5721 13.2559 37.3533C11.672 38.6196 10.1095 39.9135 8.56836 41.2351C7.246 38.7857 6.00088 36.2955 4.83301 33.7644C4.47929 31.8595 5.13847 30.4191 6.81055 29.4431C11.7237 26.058 17.1437 24.0805 23.0703 23.5105ZM60.8633 24.5359C63.9887 24.5114 67.1136 24.5359 70.2383 24.6091C71.0974 24.858 71.4879 25.4439 71.4101 26.3669C71.3866 28.5898 70.3124 29.42 68.1875 28.8572C67.4549 28.0514 66.576 27.4654 65.5508 27.0994C63.9977 26.8938 62.4352 26.8206 60.8633 26.8796C60.8633 26.0984 60.8633 25.3171 60.8633 24.5359ZM14.7207 34.3503C14.8672 34.3503 15.0137 34.3503 15.1602 34.3503C15.1842 34.7439 15.1597 35.1346 15.0869 35.5222C14.7695 35.2048 14.4522 34.8875 14.1348 34.5701C14.363 34.5393 14.5583 34.4661 14.7207 34.3503ZM14.5742 39.4773C16.1064 39.8658 17.6201 40.3297 19.1152 40.8689C20.9302 40.8809 22.7368 40.9786 24.5352 41.1619C25.4291 41.6072 25.7464 42.3153 25.4873 43.2859C25.2676 43.7009 24.9501 44.0183 24.5352 44.238C23.9004 44.3357 23.2656 44.3357 22.6309 44.238C21.7193 43.9774 20.8404 43.6357 19.9941 43.2126C17.4459 42.6639 14.9067 42.078 12.377 41.4548C13.1379 40.8153 13.8703 40.1561 14.5742 39.4773ZM16.4785 47.9734C17.4213 48.6658 18.3979 49.325 19.4082 49.9509C22.6017 51.5125 25.9464 51.9274 29.4424 51.196C29.5156 51.2448 29.5889 51.2938 29.6621 51.3425C28.6938 54.0516 27.8149 56.786 27.0254 59.5457C21.7975 59.6584 17.2077 57.9983 13.2559 54.5652C14.3716 52.3827 15.4458 50.1855 16.4785 47.9734ZM35.668 49.4382C36.0024 49.4541 36.2954 49.5761 36.5469 49.8044C37.9902 51.0771 39.455 52.3222 40.9414 53.5398C41.091 53.6133 41.1154 53.7109 41.0146 53.8328C38.8543 55.3897 36.5838 56.7813 34.2031 58.0076C32.7501 58.6716 31.2364 59.0623 29.6621 59.1794C30.6718 56.3454 31.624 53.489 32.5186 50.6101C33.586 50.2303 34.6358 49.8397 35.668 49.4382Z" fill="#FF7300"/>
</svg>
