<svg width="80" height="80" viewBox="0 0 80 80" fill="none" xmlns="http://www.w3.org/2000/svg">
<g clip-path="url(#clip0_641_58)">
<path opacity="0.926" fill-rule="evenodd" clip-rule="evenodd" d="M54.4993 4.92172C59.3566 4.89349 64.2134 4.92172 69.0701 5.00643C69.781 5.51151 69.9221 6.16097 69.4936 6.95484C69.3666 7.06087 69.2253 7.14558 69.0701 7.20898C67.2638 7.29366 65.4565 7.3219 63.6484 7.29369C65.1233 10.9786 66.6481 14.6495 68.2229 18.3064C71.3268 20.0852 73.2188 22.7395 73.8987 26.2695C74.0117 38.9201 74.0117 51.5705 73.8987 64.2211C72.3729 70.487 68.363 73.5933 61.8694 73.5396C56.6568 73.741 52.873 71.5385 50.5178 66.9319C50.0758 65.8418 49.7935 64.7123 49.6707 63.5434C49.6143 56.371 49.5577 49.1985 49.5013 42.0262C47.0237 42.7269 44.8495 42.1904 42.9783 40.4166C38.0104 40.5052 33.0406 40.6747 28.0688 40.9249C27.6301 41.1277 27.1783 41.2971 26.7134 41.4332C27.4036 43.1671 28.2226 44.8331 29.17 46.4313C29.568 46.0048 29.9916 45.6096 30.4407 45.2453C31.6891 41.6172 34.1176 40.5159 37.7261 41.9415C39.6809 43.2356 40.3305 45.0145 39.6745 47.2784C39.3128 48.6545 38.4939 49.6428 37.2178 50.2434C36.5499 50.3645 35.9286 50.5904 35.3541 50.9211C33.7163 52.3329 32.0786 53.7449 30.4407 55.1568C29.4398 55.8455 28.3668 56.0149 27.2216 55.665C25.5008 54.8326 23.9193 53.788 22.4777 52.5306C21.8 53.7731 21.1223 55.0156 20.4446 56.258C23.436 59.1081 26.4575 61.932 29.5089 64.7294C30.8977 68.2179 32.0837 71.7758 33.0669 75.4033C33.955 79.2613 32.4019 81.0403 28.4076 80.7402C27.212 80.0759 26.3931 79.0876 25.9509 77.7752C24.1018 75.1503 22.2945 72.4959 20.5293 69.8122C19.0044 68.7392 17.4796 67.6661 15.9548 66.5931C13.964 69.8408 11.9309 73.0599 9.85539 76.2504C8.69466 77.8062 7.36749 79.1898 5.87386 80.4014C4.5406 80.8918 3.18519 80.9483 1.80761 80.5708C0.203648 79.4881 -0.332876 77.9916 0.198057 76.081C1.56757 72.0432 3.43126 68.2592 5.78914 64.7294C6.31345 61.6004 6.39816 58.466 6.04328 55.3262C6.03144 54.4255 6.17262 53.5501 6.46685 52.7001C8.07696 48.1244 10.223 43.8323 12.9051 39.8236C14.1927 38.0262 15.8306 36.6708 17.8184 35.7574C17.464 32.1459 18.9041 29.5198 22.1388 27.879C25.9204 26.6136 28.9418 27.6019 31.2032 30.844C31.6162 31.6883 31.927 32.5637 32.135 33.4701C36.9649 33.5972 41.7935 33.5689 46.621 33.3854C47.6293 33.3188 48.5894 33.4883 49.5013 33.8937C49.5577 31.5781 49.6143 29.2628 49.6707 26.9472C50.1949 23.13 52.1152 20.2498 55.4312 18.3064C56.9376 14.6723 58.4907 11.0579 60.0904 7.46312C58.2293 7.32209 56.3656 7.23738 54.4993 7.20898C53.621 6.45029 53.621 5.68787 54.4993 4.92172ZM61.7847 9.66567C62.8536 12.1335 63.9266 14.6184 65.0038 17.1204C64.9474 17.1769 64.8908 17.2335 64.8344 17.2899C62.7393 17.096 60.6497 17.0678 58.5656 17.2052C59.7092 14.7204 60.7824 12.2072 61.7847 9.66567ZM59.921 19.4924C63.6426 18.9355 66.8335 19.9521 69.4936 22.5421C70.713 24.0813 71.4188 25.832 71.6115 27.7943C65.1168 27.7943 58.622 27.7943 52.1274 27.7943C52.7493 23.1629 55.3472 20.3956 59.921 19.4924ZM24.0025 29.8275C27.9551 29.7417 29.7907 31.662 29.5089 35.588C28.6262 38.2193 26.7908 39.3772 24.0025 39.0612C21.3771 38.2432 20.1628 36.4642 20.3598 33.7243C20.8542 31.7338 22.0685 30.4349 24.0025 29.8275ZM52.1274 30.3357C58.622 30.3357 65.1168 30.3357 71.6115 30.3357C71.6115 40.3319 71.6115 50.3281 71.6115 60.3243C65.1168 60.3243 58.622 60.3243 52.1274 60.3243C52.1274 50.3281 52.1274 40.3319 52.1274 30.3357ZM42.9783 35.9268C44.6736 35.8987 46.3679 35.9268 48.0611 36.0115C49.2874 36.692 49.7676 37.7368 49.5013 39.1459C49.2337 39.407 48.923 39.6047 48.5694 39.7389C46.772 40.0261 45.3037 39.4614 44.1643 38.0447C40.2365 37.966 36.3114 38.0508 32.3892 38.2988C31.9656 38.2424 31.542 38.1858 31.1185 38.1294C31.498 37.5567 31.7804 36.9356 31.9656 36.2657C35.6642 36.1527 39.335 36.0398 42.9783 35.9268ZM18.5809 38.1294C19.7286 39.7228 21.2534 40.8241 23.1554 41.4332C23.4897 41.5171 23.8285 41.5454 24.172 41.5179C24.9156 43.777 25.9038 45.923 27.1369 47.9561C27.8987 49.0306 28.8869 49.3412 30.1019 48.888C30.836 48.2667 31.5703 47.6456 32.3044 47.0243C32.7033 46.3662 33.014 45.6602 33.2363 44.9064C33.9958 43.8816 34.9841 43.5708 36.2013 43.9746C37.2869 44.5376 37.6541 45.4129 37.3025 46.6007C37.1265 46.9812 36.9288 47.3484 36.7095 47.702C35.9188 47.9844 35.1283 48.2667 34.3376 48.5491C32.4174 50.1304 30.4972 51.7118 28.577 53.2931C28.0825 53.3866 27.6306 53.2736 27.2216 52.9542C25.6922 51.9068 24.2238 50.7772 22.8165 49.5657C22.3083 49.2268 21.8 49.2268 21.2917 49.5657C19.9385 51.8485 18.6959 54.1922 17.5643 56.5969C17.6573 57.2839 17.9962 57.8205 18.5809 58.2064C21.5619 60.9257 24.5269 63.6649 27.4758 66.4236C28.7434 69.6363 29.8164 72.912 30.6949 76.2504C30.8345 76.8234 30.8062 77.3883 30.6102 77.9447C30.1769 78.0983 29.7534 78.2678 29.3395 78.4529C27.0805 75.0644 24.8214 71.6759 22.5624 68.2873C19.1066 65.7263 15.5769 63.2696 11.9732 60.9173C10.488 59.7709 9.38675 58.3308 8.6694 56.5969C8.33054 55.7498 8.33054 54.9026 8.6694 54.0555C10.2606 49.2351 12.5196 44.7736 15.4465 40.6708C16.3309 39.5851 17.3756 38.738 18.5809 38.1294ZM8.58468 61.3408C10.0109 62.5968 11.5358 63.7264 13.1592 64.7294C13.3544 65.1709 13.3825 65.6228 13.2439 66.0848C11.2982 69.5535 9.15213 72.8856 6.8057 76.081C6.09975 76.787 5.39382 77.4928 4.68787 78.1988C2.78432 78.7803 2.13486 78.1307 2.73946 76.2504C3.3088 74.4863 4.043 72.7921 4.94201 71.1676C6.11437 69.2185 7.24387 67.2418 8.33054 65.2377C8.46214 63.941 8.54685 62.6422 8.58468 61.3408ZM52.1274 62.6963C58.622 62.6963 65.1168 62.6963 71.6115 62.6963C71.1889 66.7611 69.0428 69.4437 65.1732 70.744C62.7328 71.1244 60.3044 71.068 57.8879 70.5746C54.375 69.1218 52.4549 66.4957 52.1274 62.6963Z" fill="#FF7300"/>
<path opacity="0.878" fill-rule="evenodd" clip-rule="evenodd" d="M45.2656 23.5469C45.6545 23.5153 46.0192 23.5934 46.3594 23.7812C47.0952 24.6803 47.6681 25.6698 48.0781 26.75C47.8319 27.8106 47.2069 28.1231 46.2031 27.6875C45.503 26.7772 44.93 25.7876 44.4844 24.7187C44.5381 24.1736 44.7984 23.7829 45.2656 23.5469Z" fill="#FF7300"/>
<path opacity="0.894" fill-rule="evenodd" clip-rule="evenodd" d="M41.3567 26.984C41.6735 26.9586 41.986 26.9847 42.2942 27.0621C43.6485 27.8433 45.0025 28.6246 46.3567 29.4058C47.19 30.0829 47.19 30.7601 46.3567 31.4371C45.9922 31.5413 45.6275 31.5413 45.263 31.4371C43.8567 30.6297 42.4505 29.8226 41.0442 29.0152C40.422 28.2257 40.5263 27.5485 41.3567 26.984Z" fill="#FF7300"/>
<path opacity="0.893" fill-rule="evenodd" clip-rule="evenodd" d="M44.1727 43.7033C45.3697 43.5725 45.9166 44.0933 45.8133 45.2658C44.8058 46.7422 43.738 48.1745 42.6102 49.5627C41.3172 49.8841 40.7704 49.3892 40.9696 48.0783C42.011 46.5952 43.0786 45.1369 44.1727 43.7033Z" fill="#FF7300"/>
<path opacity="0.892" fill-rule="evenodd" clip-rule="evenodd" d="M46.6722 46.6718C47.7408 46.376 48.3137 46.7666 48.3909 47.8436C48.2967 48.8125 48.1664 49.776 48.0003 50.7343C47.4165 51.283 46.7915 51.335 46.1253 50.8905C45.9634 50.5202 45.8853 50.1296 45.8909 49.7186C45.9576 48.9622 46.0358 48.2071 46.1253 47.453C46.2342 47.1274 46.4165 46.8669 46.6722 46.6718Z" fill="#FF7300"/>
</g>
<defs>
<clipPath id="clip0_641_58">
<rect width="80" height="80" fill="white"/>
</clipPath>
</defs>
</svg>
