<svg width="70" height="75" viewBox="0 0 70 75" fill="none" xmlns="http://www.w3.org/2000/svg">
<path d="M34.066 0.888981C34.1974 -0.296327 35.8027 -0.296327 35.934 0.888981L37.0352 10.8326C38.4572 23.6726 47.9056 33.7959 59.8894 35.3194L69.1702 36.4993C70.2766 36.64 70.2766 38.36 69.1702 38.5008L59.8894 39.6806C47.9056 41.2041 38.4572 51.3274 37.0352 64.1673L35.934 74.1109C35.8027 75.2964 34.1974 75.2964 34.066 74.1109L32.9648 64.1673C31.5428 51.3274 22.0944 41.2041 10.1105 39.6806L0.829715 38.5008C-0.276572 38.36 -0.276572 36.64 0.829715 36.4993L10.1105 35.3194C22.0944 33.7959 31.5428 23.6726 32.9648 10.8326L34.066 0.888981Z" fill="#FF7300"/>
</svg>
