<svg width="21" height="61" viewBox="0 0 21 61" fill="none" xmlns="http://www.w3.org/2000/svg">
<path fill-rule="evenodd" clip-rule="evenodd" d="M20.6092 10.979C20.0733 11.5431 19.187 11.5606 18.6296 11.0183L10.5 3.10784L2.37036 11.0183C1.81301 11.5606 0.926746 11.5431 0.390836 10.979C-0.145075 10.415 -0.127697 9.51816 0.429651 8.97584L9.04447 0.593263C9.85741 -0.197757 11.1426 -0.197753 11.9555 0.593263L20.5704 8.97584C21.1277 9.51816 21.1451 10.415 20.6092 10.979ZM20.6092 23.3756C20.0733 23.9396 19.187 23.9572 18.6296 23.4149L10.5 15.5044L2.37035 23.4149C1.81301 23.9572 0.926745 23.9396 0.390836 23.3756C-0.145076 22.8116 -0.127698 21.9147 0.42965 21.3724L9.04447 12.9898C9.85741 12.1988 11.1426 12.1988 11.9555 12.9898L20.5703 21.3724C21.1277 21.9147 21.1451 22.8116 20.6092 23.3756ZM18.6296 35.8114C19.187 36.3537 20.0733 36.3361 20.6092 35.7721C21.1451 35.2081 21.1277 34.3112 20.5703 33.7689L11.9555 25.3863C11.1426 24.5953 9.85741 24.5953 9.04447 25.3863L0.42965 33.7689C-0.127698 34.3112 -0.145076 35.2081 0.390835 35.7721C0.926745 36.3361 1.81301 36.3537 2.37035 35.8114L10.5 27.9009L18.6296 35.8114ZM20.6092 48.1687C20.0733 48.7327 19.187 48.7503 18.6296 48.2079L10.5 40.2975L2.37035 48.2079C1.81301 48.7503 0.926744 48.7327 0.390835 48.1687C-0.145077 47.6047 -0.127699 46.7078 0.429649 46.1655L9.04447 37.7829C9.85741 36.9919 11.1426 36.9919 11.9555 37.7829L20.5703 46.1655C21.1277 46.7078 21.1451 47.6047 20.6092 48.1687ZM18.6296 60.6045C19.187 61.1468 20.0733 61.1292 20.6092 60.5652C21.1451 60.0012 21.1277 59.1043 20.5703 58.562L11.9555 50.1794C11.1426 49.3884 9.85741 49.3884 9.04447 50.1794L0.429649 58.562C-0.1277 59.1043 -0.145077 60.0012 0.390834 60.5652C0.926744 61.1292 1.81301 61.1468 2.37035 60.6045L10.5 52.694L18.6296 60.6045Z" fill="white" fill-opacity="0.3"/>
</svg>
