<svg width="203" height="151" viewBox="0 0 203 151" fill="none" xmlns="http://www.w3.org/2000/svg">
<path d="M11.9063 7.75879L9.82258 0L7.7389 7.75879L0 9.84783L7.7389 11.9369L9.82258 19.6957L11.9063 11.9369L19.6452 9.84783L11.9063 7.75879Z" fill="black" fill-opacity="0.07"/>
<path d="M38.0998 7.75879L36.0161 0L33.9324 7.75879L26.1935 9.84783L33.9324 11.9369L36.0161 19.6957L38.0998 11.9369L45.8387 9.84783L38.0998 7.75879Z" fill="black" fill-opacity="0.07"/>
<path d="M62.2097 0L64.2934 7.75879L72.0323 9.84783L64.2934 11.9369L62.2097 19.6957L60.126 11.9369L52.3871 9.84783L60.126 7.75879L62.2097 0Z" fill="black" fill-opacity="0.07"/>
<path d="M90.4869 7.75879L88.4032 0L86.3195 7.75879L78.5806 9.84783L86.3195 11.9369L88.4032 19.6957L90.4869 11.9369L98.2258 9.84783L90.4869 7.75879Z" fill="black" fill-opacity="0.07"/>
<path d="M114.597 0L116.68 7.75879L124.419 9.84783L116.68 11.9369L114.597 19.6957L112.513 11.9369L104.774 9.84783L112.513 7.75879L114.597 0Z" fill="black" fill-opacity="0.07"/>
<path d="M142.874 7.75879L140.79 0L138.707 7.75879L130.968 9.84783L138.707 11.9369L140.79 19.6957L142.874 11.9369L150.613 9.84783L142.874 7.75879Z" fill="black" fill-opacity="0.07"/>
<path d="M166.984 0L169.068 7.75879L176.806 9.84783L169.068 11.9369L166.984 19.6957L164.9 11.9369L157.161 9.84783L164.9 7.75879L166.984 0Z" fill="black" fill-opacity="0.07"/>
<path d="M195.261 7.75879L193.177 0L191.094 7.75879L183.355 9.84783L191.094 11.9369L193.177 19.6957L195.261 11.9369L203 9.84783L195.261 7.75879Z" fill="black" fill-opacity="0.07"/>
<path d="M9.82258 26.2609L11.9063 34.0197L19.6452 36.1087L11.9063 38.1977L9.82258 45.9565L7.7389 38.1977L0 36.1087L7.7389 34.0197L9.82258 26.2609Z" fill="black" fill-opacity="0.07"/>
<path d="M38.0998 34.0197L36.0161 26.2609L33.9324 34.0197L26.1935 36.1087L33.9324 38.1977L36.0161 45.9565L38.0998 38.1977L45.8387 36.1087L38.0998 34.0197Z" fill="black" fill-opacity="0.07"/>
<path d="M62.2097 26.2609L64.2934 34.0197L72.0323 36.1087L64.2934 38.1977L62.2097 45.9565L60.126 38.1977L52.3871 36.1087L60.126 34.0197L62.2097 26.2609Z" fill="black" fill-opacity="0.07"/>
<path d="M90.4869 34.0197L88.4032 26.2609L86.3195 34.0197L78.5806 36.1087L86.3195 38.1977L88.4032 45.9565L90.4869 38.1977L98.2258 36.1087L90.4869 34.0197Z" fill="black" fill-opacity="0.07"/>
<path d="M114.597 26.2609L116.68 34.0197L124.419 36.1087L116.68 38.1977L114.597 45.9565L112.513 38.1977L104.774 36.1087L112.513 34.0197L114.597 26.2609Z" fill="black" fill-opacity="0.07"/>
<path d="M142.874 34.0197L140.79 26.2609L138.707 34.0197L130.968 36.1087L138.707 38.1977L140.79 45.9565L142.874 38.1977L150.613 36.1087L142.874 34.0197Z" fill="black" fill-opacity="0.07"/>
<path d="M166.984 26.2609L169.068 34.0197L176.806 36.1087L169.068 38.1977L166.984 45.9565L164.9 38.1977L157.161 36.1087L164.9 34.0197L166.984 26.2609Z" fill="black" fill-opacity="0.07"/>
<path d="M195.261 34.0197L193.177 26.2609L191.094 34.0197L183.355 36.1087L191.094 38.1977L193.177 45.9565L195.261 38.1977L203 36.1087L195.261 34.0197Z" fill="black" fill-opacity="0.07"/>
<path d="M9.82258 52.5217L11.9063 60.2805L19.6452 62.3696L11.9063 64.4586L9.82258 72.2174L7.7389 64.4586L0 62.3696L7.7389 60.2805L9.82258 52.5217Z" fill="black" fill-opacity="0.07"/>
<path d="M38.0998 60.2805L36.0161 52.5217L33.9324 60.2805L26.1935 62.3696L33.9324 64.4586L36.0161 72.2174L38.0998 64.4586L45.8387 62.3696L38.0998 60.2805Z" fill="black" fill-opacity="0.07"/>
<path d="M62.2097 52.5217L64.2934 60.2805L72.0323 62.3696L64.2934 64.4586L62.2097 72.2174L60.126 64.4586L52.3871 62.3696L60.126 60.2805L62.2097 52.5217Z" fill="black" fill-opacity="0.07"/>
<path d="M90.4869 60.2805L88.4032 52.5217L86.3195 60.2805L78.5806 62.3696L86.3195 64.4586L88.4032 72.2174L90.4869 64.4586L98.2258 62.3696L90.4869 60.2805Z" fill="black" fill-opacity="0.07"/>
<path d="M114.597 52.5217L116.68 60.2805L124.419 62.3696L116.68 64.4586L114.597 72.2174L112.513 64.4586L104.774 62.3696L112.513 60.2805L114.597 52.5217Z" fill="black" fill-opacity="0.07"/>
<path d="M142.874 60.2805L140.79 52.5217L138.707 60.2805L130.968 62.3696L138.707 64.4586L140.79 72.2174L142.874 64.4586L150.613 62.3696L142.874 60.2805Z" fill="black" fill-opacity="0.07"/>
<path d="M166.984 52.5217L169.068 60.2805L176.806 62.3696L169.068 64.4586L166.984 72.2174L164.9 64.4586L157.161 62.3696L164.9 60.2805L166.984 52.5217Z" fill="black" fill-opacity="0.07"/>
<path d="M195.261 60.2805L193.177 52.5217L191.094 60.2805L183.355 62.3696L191.094 64.4586L193.177 72.2174L195.261 64.4586L203 62.3696L195.261 60.2805Z" fill="black" fill-opacity="0.07"/>
<path d="M9.82258 78.7826L11.9063 86.5414L19.6452 88.6304L11.9063 90.7195L9.82258 98.4783L7.7389 90.7195L0 88.6304L7.7389 86.5414L9.82258 78.7826Z" fill="black" fill-opacity="0.07"/>
<path d="M38.0998 86.5414L36.0161 78.7826L33.9324 86.5414L26.1935 88.6304L33.9324 90.7195L36.0161 98.4783L38.0998 90.7195L45.8387 88.6304L38.0998 86.5414Z" fill="black" fill-opacity="0.07"/>
<path d="M62.2097 78.7826L64.2934 86.5414L72.0323 88.6304L64.2934 90.7195L62.2097 98.4783L60.126 90.7195L52.3871 88.6304L60.126 86.5414L62.2097 78.7826Z" fill="black" fill-opacity="0.07"/>
<path d="M90.4869 86.5414L88.4032 78.7826L86.3195 86.5414L78.5806 88.6304L86.3195 90.7195L88.4032 98.4783L90.4869 90.7195L98.2258 88.6304L90.4869 86.5414Z" fill="black" fill-opacity="0.07"/>
<path d="M114.597 78.7826L116.68 86.5414L124.419 88.6304L116.68 90.7195L114.597 98.4783L112.513 90.7195L104.774 88.6304L112.513 86.5414L114.597 78.7826Z" fill="black" fill-opacity="0.07"/>
<path d="M142.874 86.5414L140.79 78.7826L138.707 86.5414L130.968 88.6304L138.707 90.7195L140.79 98.4783L142.874 90.7195L150.613 88.6304L142.874 86.5414Z" fill="black" fill-opacity="0.07"/>
<path d="M166.984 78.7826L169.068 86.5414L176.806 88.6304L169.068 90.7195L166.984 98.4783L164.9 90.7195L157.161 88.6304L164.9 86.5414L166.984 78.7826Z" fill="black" fill-opacity="0.07"/>
<path d="M195.261 86.5414L193.177 78.7826L191.094 86.5414L183.355 88.6304L191.094 90.7195L193.177 98.4783L195.261 90.7195L203 88.6304L195.261 86.5414Z" fill="black" fill-opacity="0.07"/>
<path d="M9.82258 105.043L11.9063 112.802L19.6452 114.891L11.9063 116.98L9.82258 124.739L7.7389 116.98L0 114.891L7.7389 112.802L9.82258 105.043Z" fill="black" fill-opacity="0.07"/>
<path d="M38.0998 112.802L36.0161 105.043L33.9324 112.802L26.1935 114.891L33.9324 116.98L36.0161 124.739L38.0998 116.98L45.8387 114.891L38.0998 112.802Z" fill="black" fill-opacity="0.07"/>
<path d="M62.2097 105.043L64.2934 112.802L72.0323 114.891L64.2934 116.98L62.2097 124.739L60.126 116.98L52.3871 114.891L60.126 112.802L62.2097 105.043Z" fill="black" fill-opacity="0.07"/>
<path d="M90.4869 112.802L88.4032 105.043L86.3195 112.802L78.5806 114.891L86.3195 116.98L88.4032 124.739L90.4869 116.98L98.2258 114.891L90.4869 112.802Z" fill="black" fill-opacity="0.07"/>
<path d="M114.597 105.043L116.68 112.802L124.419 114.891L116.68 116.98L114.597 124.739L112.513 116.98L104.774 114.891L112.513 112.802L114.597 105.043Z" fill="black" fill-opacity="0.07"/>
<path d="M142.874 112.802L140.79 105.043L138.707 112.802L130.968 114.891L138.707 116.98L140.79 124.739L142.874 116.98L150.613 114.891L142.874 112.802Z" fill="black" fill-opacity="0.07"/>
<path d="M166.984 105.043L169.068 112.802L176.806 114.891L169.068 116.98L166.984 124.739L164.9 116.98L157.161 114.891L164.9 112.802L166.984 105.043Z" fill="black" fill-opacity="0.07"/>
<path d="M195.261 112.802L193.177 105.043L191.094 112.802L183.355 114.891L191.094 116.98L193.177 124.739L195.261 116.98L203 114.891L195.261 112.802Z" fill="black" fill-opacity="0.07"/>
<path d="M9.82258 131.304L11.9063 139.063L19.6452 141.152L11.9063 143.241L9.82258 151L7.7389 143.241L0 141.152L7.7389 139.063L9.82258 131.304Z" fill="black" fill-opacity="0.07"/>
<path d="M38.0998 139.063L36.0161 131.304L33.9324 139.063L26.1935 141.152L33.9324 143.241L36.0161 151L38.0998 143.241L45.8387 141.152L38.0998 139.063Z" fill="black" fill-opacity="0.07"/>
<path d="M62.2097 131.304L64.2934 139.063L72.0323 141.152L64.2934 143.241L62.2097 151L60.126 143.241L52.3871 141.152L60.126 139.063L62.2097 131.304Z" fill="black" fill-opacity="0.07"/>
<path d="M90.4869 139.063L88.4032 131.304L86.3195 139.063L78.5806 141.152L86.3195 143.241L88.4032 151L90.4869 143.241L98.2258 141.152L90.4869 139.063Z" fill="black" fill-opacity="0.07"/>
<path d="M114.597 131.304L116.68 139.063L124.419 141.152L116.68 143.241L114.597 151L112.513 143.241L104.774 141.152L112.513 139.063L114.597 131.304Z" fill="black" fill-opacity="0.07"/>
<path d="M142.874 139.063L140.79 131.304L138.707 139.063L130.968 141.152L138.707 143.241L140.79 151L142.874 143.241L150.613 141.152L142.874 139.063Z" fill="black" fill-opacity="0.07"/>
<path d="M166.984 131.304L169.068 139.063L176.806 141.152L169.068 143.241L166.984 151L164.9 143.241L157.161 141.152L164.9 139.063L166.984 131.304Z" fill="black" fill-opacity="0.07"/>
<path d="M195.261 139.063L193.177 131.304L191.094 139.063L183.355 141.152L191.094 143.241L193.177 151L195.261 143.241L203 141.152L195.261 139.063Z" fill="black" fill-opacity="0.07"/>
</svg>
