<svg width="96" height="92" viewBox="0 0 96 92" fill="none" xmlns="http://www.w3.org/2000/svg">
<path d="M29.147 0.381743C29.454 0.251395 29.7627 0.124134 30.073 0H65.927C66.2373 0.124134 66.546 0.251395 66.853 0.381743H29.147Z" fill="white" fill-opacity="0.3"/>
<path d="M21.9322 4.19917C22.1322 4.07048 22.3333 3.94323 22.5353 3.81743H73.4647C73.6667 3.94323 73.8678 4.07048 74.0678 4.19917H21.9322Z" fill="white" fill-opacity="0.3"/>
<path d="M16.7866 8.0166C16.9373 7.88844 17.0888 7.76119 17.2411 7.63485H78.7589C78.9112 7.76119 79.0627 7.88844 79.2134 8.0166H16.7866Z" fill="white" fill-opacity="0.3"/>
<path d="M12.7878 11.834C12.9073 11.7061 13.0274 11.5789 13.1482 11.4523H82.8518C82.9726 11.5789 83.0927 11.7061 83.2122 11.834H12.7878Z" fill="white" fill-opacity="0.3"/>
<path d="M9.57718 15.6515C9.67375 15.5237 9.77095 15.3965 9.86878 15.2697H86.1312C86.229 15.3965 86.3262 15.5237 86.4228 15.6515H9.57718Z" fill="white" fill-opacity="0.3"/>
<path d="M6.97128 19.4689C7.04964 19.3412 7.12858 19.214 7.20811 19.0871H88.7919C88.8714 19.214 88.9504 19.3412 89.0287 19.4689H6.97128Z" fill="white" fill-opacity="0.3"/>
<path d="M4.86241 23.2863C4.92542 23.1587 4.98899 23.0315 5.0531 22.9046H90.9469C91.011 23.0315 91.0746 23.1587 91.1376 23.2863H4.86241Z" fill="white" fill-opacity="0.3"/>
<path d="M3.18192 27.1037C3.23146 26.9762 3.28153 26.849 3.33214 26.722H92.6679C92.7185 26.849 92.7685 26.9762 92.8181 27.1037H3.18192Z" fill="white" fill-opacity="0.3"/>
<path d="M1.88384 30.9212C1.92118 30.7937 1.95905 30.6664 1.99743 30.5394H94.0026C94.041 30.6664 94.0788 30.7937 94.1162 30.9212H1.88384Z" fill="white" fill-opacity="0.3"/>
<path d="M0.936534 34.7386C0.962568 34.6112 0.989112 34.4839 1.01617 34.3568H94.9838C95.0109 34.4839 95.0374 34.6112 95.0635 34.7386H0.936534Z" fill="white" fill-opacity="0.3"/>
<path d="M0.318098 38.556C0.333432 38.4286 0.349271 38.3014 0.365613 38.1743H95.6344C95.6507 38.3014 95.6666 38.4286 95.6819 38.556H0.318098Z" fill="white" fill-opacity="0.3"/>
<path d="M0.0135948 42.3734C0.0186377 42.2461 0.024183 42.1188 0.030229 41.9917H95.9698C95.9758 42.1188 95.9814 42.2461 95.9864 42.3734H0.0135948Z" fill="white" fill-opacity="0.3"/>
<path d="M0.0135948 46.1909C0.00856209 46.0638 0.00402985 45.9365 0 45.8091H96C95.996 45.9365 95.9914 46.0638 95.9864 46.1909H0.0135948Z" fill="white" fill-opacity="0.3"/>
<path d="M0.318097 50.0083C0.3028 49.8812 0.288006 49.754 0.273717 49.6266H95.7263C95.712 49.754 95.6972 49.8812 95.6819 50.0083H0.318097Z" fill="white" fill-opacity="0.3"/>
<path d="M0.936534 53.8257C0.910576 53.6987 0.885125 53.5714 0.860186 53.444H95.1398C95.1149 53.5714 95.0894 53.6987 95.0635 53.8257H0.936534Z" fill="white" fill-opacity="0.3"/>
<path d="M1.88384 57.6432C1.84662 57.5161 1.80993 57.3889 1.77375 57.2614H94.2262C94.1901 57.3889 94.1534 57.5161 94.1162 57.6432H1.88384Z" fill="white" fill-opacity="0.3"/>
<path d="M3.18192 61.4606C3.13259 61.3336 3.08379 61.2063 3.03552 61.0788H92.9645C92.9162 61.2063 92.8674 61.3336 92.8181 61.4606H3.18192Z" fill="white" fill-opacity="0.3"/>
<path d="M4.86241 65.278C4.79972 65.1511 4.73758 65.0238 4.67599 64.8963H91.324C91.2624 65.0238 91.2003 65.1511 91.1376 65.278H4.86241Z" fill="white" fill-opacity="0.3"/>
<path d="M6.97128 69.0954C6.89341 68.9686 6.81611 68.8413 6.73939 68.7137H89.2606C89.1839 68.8413 89.1066 68.9686 89.0287 69.0954H6.97128Z" fill="white" fill-opacity="0.3"/>
<path d="M9.57718 72.9129C9.48136 72.7861 9.38616 72.6589 9.29158 72.5311H86.7084C86.6138 72.6589 86.5186 72.7861 86.4228 72.9129H9.57718Z" fill="white" fill-opacity="0.3"/>
<path d="M12.7878 76.7303C12.6696 76.6037 12.5521 76.4764 12.4352 76.3485H83.5648C83.4479 76.4764 83.3304 76.6037 83.2122 76.7303H12.7878Z" fill="white" fill-opacity="0.3"/>
<path d="M16.7866 80.5477C16.6381 80.4214 16.4903 80.2941 16.3433 80.166H79.6567C79.5097 80.2941 79.3619 80.4214 79.2134 80.5477H16.7866Z" fill="white" fill-opacity="0.3"/>
<path d="M21.9322 84.3652C21.7366 84.2393 21.5419 84.112 21.3482 83.9834H74.6518C74.4581 84.112 74.2634 84.2393 74.0678 84.3652H21.9322Z" fill="white" fill-opacity="0.3"/>
<path d="M29.147 88.1826C28.8539 88.0581 28.5622 87.9309 28.2721 87.8008H67.7279C67.4378 87.9309 67.1461 88.0581 66.853 88.1826H29.147Z" fill="white" fill-opacity="0.3"/>
<path d="M54.1035 91.6183C52.1048 91.8702 50.0676 92 48 92C45.9324 92 43.8952 91.8702 41.8965 91.6183H54.1035Z" fill="white" fill-opacity="0.3"/>
</svg>
