<svg width="92" height="106" viewBox="0 0 92 106" fill="none" xmlns="http://www.w3.org/2000/svg">
<path d="M10.5 0L12.7274 8.27261L21 10.5L12.7274 12.7274L10.5 21L8.27261 12.7274L0 10.5L8.27261 8.27261L10.5 0Z" fill="white" fill-opacity="0.3"/>
<path fill-rule="evenodd" clip-rule="evenodd" d="M70.0147 38.5091L64.7619 19L59.5091 38.5091L40 43.7619L59.5091 49.0147L64.7619 68.5238L65.6666 65.1636L65.9249 66.1227L66.7219 65.9081L66.094 63.5762L70.0147 49.0147L84.5762 45.094L86.9081 45.7219L87.1227 44.9249L86.1636 44.6666L89.5238 43.7619L70.0147 38.5091ZM86.1636 44.6666L83.8712 44.0494L83.6566 44.8464L84.5762 45.094L86.1636 44.6666ZM66.094 63.5762L65.8464 62.6566L65.0494 62.8712L65.6666 65.1636L66.094 63.5762ZM67.6758 23.1019L67.6535 23.108L67.5974 23.3165L67.2381 23.2198L66.8788 23.3165L66.8227 23.108L66.8004 23.1019L67.2381 21.4762L67.6758 23.1019ZM68.5513 26.3535L69.4268 29.605L68.6297 29.8196L67.7543 26.5681L68.5513 26.3535ZM70.3022 32.8565L71.1777 36.108L70.3807 36.3226L69.5052 33.0711L70.3022 32.8565ZM72.0532 39.3595L72.4909 40.9853L74.1166 41.423L73.9021 42.22L71.8174 41.6588L71.2561 39.5741L72.0532 39.3595ZM77.3682 42.2985L80.6197 43.174L80.4051 43.971L77.1536 43.0955L77.3682 42.2985ZM90.3682 45.8227L90.3742 45.8004L92 46.2381L90.3742 46.6758L90.3682 46.6535L90.1596 46.5974L90.2564 46.2381L90.1596 45.8788L90.3682 45.8227ZM87.1227 47.5513L83.8712 48.4268L83.6566 47.6297L86.9081 46.7543L87.1227 47.5513ZM80.6197 49.3022L77.3682 50.1777L77.1536 49.3807L80.4051 48.5052L80.6197 49.3022ZM74.1166 51.0532L72.4909 51.4909L72.0532 53.1166L71.2561 52.9021L71.8174 50.8174L73.9021 50.2561L74.1166 51.0532ZM71.1777 56.3682L70.3022 59.6197L69.5052 59.4051L70.3807 56.1536L71.1777 56.3682ZM69.4268 62.8712L68.5513 66.1227L67.7543 65.9081L68.6297 62.6566L69.4268 62.8712ZM67.6535 69.3682L67.6758 69.3742L67.2381 71L66.8004 69.3742L66.8227 69.3682L66.8788 69.1596L67.2381 69.2564L67.5974 69.1596L67.6535 69.3682ZM64.174 59.6197L63.2985 56.3682L64.0955 56.1536L64.971 59.4051L64.174 59.6197ZM62.423 53.1166L61.9853 51.4909L60.3595 51.0532L60.5741 50.2561L62.6588 50.8174L63.22 52.9021L62.423 53.1166ZM57.108 50.1777L53.8565 49.3022L54.0711 48.5052L57.3226 49.3807L57.108 50.1777ZM50.605 48.4268L47.3535 47.5513L47.5681 46.7543L50.8196 47.6297L50.605 48.4268ZM44.108 46.6535L44.1019 46.6758L42.4762 46.2381L44.1019 45.8004L44.108 45.8227L44.3165 45.8788L44.2198 46.2381L44.3165 46.5974L44.108 46.6535ZM47.3535 44.9249L50.605 44.0494L50.8196 44.8464L47.5681 45.7219L47.3535 44.9249ZM53.8565 43.174L57.108 42.2985L57.3226 43.0955L54.0711 43.971L53.8565 43.174ZM60.3595 41.423L61.9853 40.9853L62.423 39.3595L63.22 39.5741L62.6588 41.6588L60.5741 42.22L60.3595 41.423ZM63.2985 36.108L64.174 32.8565L64.971 33.0711L64.0955 36.3226L63.2985 36.108ZM65.0494 29.605L65.9249 26.3535L66.7219 26.5681L65.8464 29.8196L65.0494 29.605Z" fill="white" fill-opacity="0.3"/>
<path d="M29.208 89.3271L33.7607 90.5957V90.5967C33.6866 90.8627 33.8424 91.1387 34.1084 91.2129L35.1377 91.5L34.1084 91.7871C33.8424 91.8613 33.6866 92.1373 33.7607 92.4033L29.208 93.6719C29.1334 93.4065 28.8584 93.2511 28.5928 93.3252L25.8359 94.0947L25.5586 94.1719L25.4863 94.4502L24.7432 97.3057C24.6738 97.5725 24.834 97.8451 25.1006 97.915L23.8682 102.66C23.6345 102.599 23.3965 102.714 23.2939 102.923L23.2588 103.019L23 104.013L22.7412 103.019L22.7061 102.923C22.6035 102.714 22.3646 102.599 22.1309 102.66L20.8984 97.915C21.1656 97.8455 21.3263 97.5728 21.2568 97.3057L20.5137 94.4502L20.4414 94.1719L20.1641 94.0947L17.4072 93.3252L17.3066 93.3076C17.0751 93.2916 16.8561 93.4397 16.791 93.6719L12.2383 92.4033C12.3125 92.1373 12.1576 91.8613 11.8916 91.7871L10.8613 91.5L11.8916 91.2129C12.1576 91.1387 12.3134 90.8627 12.2393 90.5967L12.2383 90.5957L16.791 89.3271C16.8559 89.5597 17.0748 89.7084 17.3066 89.6924L17.4072 89.6748L20.1641 88.9053L20.4414 88.8281L20.5137 88.5498L21.2568 85.6943C21.3177 85.4604 21.2021 85.2215 20.9932 85.1191L20.8984 85.084L22.1309 80.3389L22.1318 80.3398C22.3991 80.4093 22.6717 80.2487 22.7412 79.9814L23 78.9863L23.2588 79.9814C23.3283 80.2487 23.6009 80.4093 23.8682 80.3398V80.3389L25.1006 85.084H25.1016C24.8343 85.1535 24.6737 85.4271 24.7432 85.6943L25.4863 88.5498L25.5586 88.8281L25.8359 88.9053L28.5928 89.6748C28.8587 89.749 29.1338 89.5931 29.208 89.3271Z" fill="white" fill-opacity="0.3" stroke="white" stroke-linecap="round" stroke-dasharray="4 4"/>
</svg>
