<svg width="111" height="15" viewBox="0 0 111 15" fill="none" xmlns="http://www.w3.org/2000/svg">
<path d="M0.601235 11.0994C0.851747 10.3438 1.32811 9.44893 1.75764 8.79194C1.8927 8.58429 1.92958 8.74257 2.02541 8.60664C2.21429 8.33952 2.31765 8.04589 2.5231 7.78886C2.59206 7.7035 2.66954 7.90437 2.73843 7.81337C3.10931 7.32557 3.38701 6.8054 3.77096 6.31329C5.64824 3.93108 8.08615 1.55849 11.4879 1.0037C11.9511 0.93116 12.4639 0.914753 12.9862 0.945184C13.6941 0.984869 14.3898 1.11241 15.0273 1.23142C15.1559 1.25548 15.1168 1.09378 15.1441 1.08811C15.5772 1.01158 15.3711 1.26487 15.6013 1.37652C16.5155 1.82669 17.4559 2.33638 18.2566 2.79429C18.5968 2.99047 18.4341 2.52847 18.6695 2.88728C18.6855 2.91183 18.5157 2.98475 18.5935 3.05886C18.7702 3.2252 19.1543 3.47477 19.291 3.59759C19.5567 3.83552 19.6042 3.87229 19.86 4.08519C20.2109 4.38039 20.5631 4.79418 20.9411 5.09342C21.0224 5.15719 21.0305 4.9465 21.1702 5.03814C21.3109 5.13023 21.6181 5.43778 21.6972 5.56603C21.7768 5.69422 21.6446 5.74247 21.6433 5.78119C21.6284 6.10388 22.2182 6.20519 22.2702 6.24453C23.2035 6.95548 23.7628 7.78901 24.5428 8.51502C25.1339 9.06514 25.8185 9.5789 26.4046 10.0386C27.1017 10.5846 27.6792 11.0679 28.4366 11.4249C28.5161 11.4618 28.5065 11.2478 28.6023 11.2914C29.579 11.733 30.5604 12.0039 31.6069 12.1167C31.6532 12.1217 31.6994 12.1263 31.7455 12.1307C31.8566 12.1409 31.717 12.3103 31.8303 12.3299C32.5041 12.473 33.7583 12.5025 33.8926 11.667C34.3339 11.541 34.8568 11.3249 35.3015 11.2402C35.5895 11.1837 35.4445 11.477 35.7059 11.2332C35.7643 11.1778 35.596 11.0952 35.6878 11.0231C36.0715 10.721 36.5439 10.4513 36.8825 10.0865C36.9511 10.0121 36.8425 9.91693 36.849 9.87961C36.9071 9.57387 37.4245 9.58995 37.5088 9.5508C38.1368 9.26377 38.4539 8.87626 38.9162 8.44913C39.0232 8.34995 38.7674 8.32966 38.8653 8.22939C39.3759 7.70969 39.9286 7.18751 40.5069 6.73839C40.6358 6.6389 40.6431 6.85868 40.7105 6.81707C41.0062 6.63236 40.8463 6.36054 41.1283 6.17867C41.1874 6.14012 41.256 6.26687 41.2757 6.269C41.5837 6.3033 41.4716 5.94111 41.5038 5.89984C41.9011 5.37809 42.4444 5.35342 42.8784 4.89986C42.9306 4.84519 42.6867 4.82656 42.8412 4.6806C43.8656 3.71245 45.137 2.80065 46.5108 2.3C46.7231 2.22328 46.634 2.41138 46.654 2.4198C46.9635 2.55488 46.9598 2.18798 47.0246 2.14692C47.5322 1.83498 48.1236 1.95787 48.4205 1.47663C49.0205 1.37558 49.6192 1.32049 50.2276 1.32508C52.1513 1.31977 54.0526 2.04541 55.3847 3.28553C55.4074 3.30583 55.2694 3.41497 55.3147 3.45465C55.8464 3.93603 55.8829 3.6488 56.4594 3.68468C56.6063 3.69566 56.6563 4.22774 56.6604 4.26831C56.6848 4.42219 56.4341 4.53948 56.4514 4.57953C56.595 4.90231 57.0841 4.235 57.4204 4.52306C57.4298 4.53302 57.2872 4.61036 57.305 4.6457C57.3599 4.75571 57.4844 4.78458 57.5333 4.89757C57.6445 5.15816 57.4411 5.51304 57.881 5.60097C57.9372 5.61205 58.2003 5.21668 58.4698 5.49907C58.5768 5.61049 59.0769 6.07773 59.1913 6.23212C59.3068 6.38644 59.108 6.40347 59.1132 6.41763C59.341 6.91746 59.1439 6.84105 59.1201 7.23041C59.0964 7.61876 59.5368 7.06881 59.6659 7.08588C59.7951 7.10331 59.9464 7.48228 59.9718 7.58724C59.9972 7.69223 59.8486 7.68058 59.8841 7.76076C60.1226 8.28999 60.2969 7.67783 60.5018 7.72241C60.9849 7.82537 60.8566 8.42408 61.1008 8.72522C61.1666 8.80626 61.1865 8.66226 61.261 8.7172C61.5555 8.93558 61.6066 9.20439 62.0146 9.37011C62.0824 9.39854 62.535 9.38148 62.5484 9.69384C62.5503 9.73885 62.3997 9.78093 62.4992 9.90357C62.6474 10.0872 62.9523 10.3726 63.1762 10.4904C63.3403 10.5765 63.3052 10.2806 63.4456 10.4713C63.5084 10.5559 63.2829 10.5422 63.4083 10.6933C63.5352 10.8472 63.9358 11.1243 64.0961 11.2229C64.2541 11.3218 64.2574 11.1299 64.276 11.1292C64.3859 11.1279 64.7199 11.2437 64.7473 11.2591C66.0452 12.0197 67.338 12.7428 68.8483 12.6642C68.8662 12.6632 68.884 12.6622 68.9018 12.661C69.0221 12.6528 68.9391 12.4829 68.9575 12.4799C69.351 12.396 69.0528 12.8624 69.3509 12.9978C69.2876 12.6537 69.4512 12.711 69.7339 12.6348C69.8662 12.5972 69.7724 12.4749 69.7829 12.4596C69.941 12.2297 70.1138 12.4604 70.1654 12.5045C70.3419 12.6691 70.4258 12.4049 70.546 12.5077C70.6717 12.6073 70.5175 12.858 70.7897 12.7719C70.8257 12.6299 70.5354 12.3834 70.7122 12.2704C71.3614 11.8938 72.6337 11.2976 73.1067 10.8385C73.5775 10.4139 73.693 10.2359 73.9721 9.98524C74.4732 9.51766 74.1251 9.55578 74.3051 9.15857C74.4793 8.76203 74.8177 9.28709 74.9553 9.31834C75.0927 9.3493 75.0306 9.21635 75.1322 9.19969C75.2338 9.18297 75.2013 9.36555 75.3315 9.24097C75.461 9.11761 75.5767 8.59617 75.5096 8.46527C75.3668 8.18884 74.9988 8.18157 75.3673 7.87384C75.3887 7.85622 75.4582 8.02073 75.534 7.94845C76.1292 7.37332 76.6698 6.70554 77.3021 6.16869C77.3891 6.09532 77.449 6.28646 77.5008 6.24548C78.045 5.82504 77.6638 5.80674 77.7037 5.30513C77.9487 5.67218 78.2767 5.70709 78.6493 5.3703C78.878 5.16758 78.7139 5.06253 78.7801 4.83104C78.8003 4.76089 79.0523 4.72119 79.0282 4.62754C78.9518 4.31998 78.5829 4.18964 79.1013 3.95848C79.1243 3.94905 79.1573 4.12196 79.2297 4.08025C79.7037 3.81589 79.5778 3.53254 80.0748 3.18615C80.4566 2.91843 81.2832 2.71008 81.7795 2.5497C81.9527 3.00116 82.3439 2.73004 82.4337 2.34934C82.7512 2.25562 83.0996 2.13367 83.428 2.0987C83.5378 2.08741 83.502 2.24119 83.5191 2.25255C83.7769 2.43378 83.8428 2.08668 83.9124 2.0585C84.662 1.77286 85.3179 1.93554 86.0367 1.63825C86.0624 1.62783 86.083 1.28751 86.3053 1.52049C86.3171 1.5369 86.0828 1.70398 86.4305 1.6959C86.6716 1.69116 87.0722 1.77015 87.469 1.76861C87.6267 1.76774 87.7812 1.75201 87.9218 1.7085C88.0378 1.67227 88.3407 1.4045 88.57 1.62617C88.6004 1.65622 88.563 1.75166 88.6062 1.80693C88.7462 1.98328 88.8408 1.64607 89 1.9429C89.1603 2.24003 89.4926 2.47277 89.9844 2.30945C89.9998 2.30481 90.1339 2.04407 90.2848 2.0609C90.5257 2.08775 90.8577 2.17564 91.1105 2.20111C91.2308 2.21309 91.1719 2.03818 91.1932 2.03738C92.0132 2.03385 92.5706 2.26123 93.4169 2.46864C93.5727 2.50694 94.0614 2.36156 94.3341 2.59918C94.6284 2.85949 94.1321 3.59592 94.9155 3.55928C95.2292 3.54631 95.8537 2.61477 96.2747 3.27499C97.3659 3.40606 98.2629 3.95049 99.3571 4.10311C99.4065 4.11015 99.6457 3.88164 99.7547 3.92202C99.9165 3.98255 99.9591 4.14076 100.075 4.1895C100.553 4.39624 101.032 4.44428 101.493 4.63692C101.666 4.70945 101.554 4.81711 101.76 4.90466C101.969 4.99344 102.178 4.87565 102.425 5.07081C102.608 5.21764 102.688 5.65891 102.945 5.81443C103.1 5.47426 103.286 5.55928 103.671 5.61836C103.745 5.6293 103.726 5.47931 103.763 5.47835C103.917 5.47193 103.99 5.62161 104.137 5.60695C104.173 5.60364 104.226 5.48734 104.259 5.4786C104.546 5.39964 104.76 5.81303 104.794 5.88389C104.929 6.15526 105.109 6.05608 105.242 6.20177C105.375 6.34765 105.089 6.31521 105.261 6.44738C105.62 6.72174 106.145 6.95785 106.538 7.16711C106.693 7.24844 106.665 7.04244 106.689 7.05056C107.052 7.18892 107.287 7.52041 107.635 7.32337C107.434 8.21387 107.882 7.35904 108.252 7.76824C108.284 7.80289 108.12 8.1868 107.956 8.16433C107.797 8.14442 107.628 7.9021 107.4 7.88627C107.345 7.88155 106.893 8.07961 106.844 8.08084C106.486 8.09906 106.729 7.52684 106.73 7.48889C106.72 7.06835 106.211 7.27895 106.108 7.26002C105.652 7.17855 105.347 6.93309 104.98 6.86418C104.736 6.81651 104.542 7.17449 104.374 7.08257C103.834 6.78907 103.854 6.1776 103.115 6.39475C102.956 6.4414 102.896 6.89705 102.621 6.40308C102.605 6.37231 102.414 5.9474 102.155 6.06146C102.123 6.07613 102.076 6.19647 102.042 6.19479C101.82 6.18124 101.725 6.03288 101.487 5.99353C101.245 5.95252 100.967 5.92609 100.729 5.79169C100.587 5.71119 100.473 5.41368 100.422 5.3327C100.275 5.09938 99.9605 5.28531 99.8986 5.04638C99.8347 4.80581 100.194 4.59596 99.8913 4.3519C99.7711 4.66618 99.632 4.98351 99.5044 5.29735C98.7738 5.0391 98.064 4.70653 97.3111 4.51199C97.2169 4.48806 97.2641 4.68877 97.1622 4.66779C96.7281 4.57796 96.4006 4.3593 95.9424 4.3001C95.593 4.25641 95.1778 4.35716 94.8099 4.32741C94.6761 3.90433 94.1124 3.922 93.7323 3.81715C93.5992 3.78039 93.6265 3.68099 93.5355 3.63065C93.1904 3.44408 93.304 3.80951 93.195 3.84495C92.728 3.99864 92.8161 3.23255 92.2973 3.17602C92.2693 3.17238 91.8811 3.53311 91.833 3.55297C91.5245 3.68107 91.8038 3.40502 91.6272 3.35211C91.3049 3.25648 91.0818 3.13228 90.6797 3.21336C90.5625 3.23753 90.2704 3.46733 90.0664 3.25292C90.0395 3.2248 90.0662 3.0909 90.0434 3.08113C89.6267 2.91669 89.5867 3.34254 89.3399 3.47192C89.094 3.60148 88.7377 3.29185 88.6635 3.20464C88.4718 2.97817 88.8202 3.11666 88.8317 3.09602C88.9704 2.84574 88.6924 2.8773 88.4842 2.84938C88.4674 2.43055 88.1699 2.44797 88.2679 2.82253C88.279 2.86335 88.4428 2.82887 88.4842 2.84938C88.2871 3.25321 87.9754 3.29765 87.6213 2.91303C87.5265 2.81027 87.537 2.6983 87.469 2.63504C87.417 2.58756 87.3177 2.56706 87.0991 2.60389C86.8699 2.64357 86.9655 2.92884 86.7724 3.01383C86.3525 3.20675 85.7314 2.9861 85.2855 3.08876C85.1192 3.12642 85.3035 3.26049 85.1921 3.29175C84.8961 3.37653 84.6383 3.30029 84.3445 3.4216C84.319 3.43264 84.4167 3.58074 84.3266 3.60155C83.6634 3.76169 83.053 3.82872 82.3884 4.09184C82.0629 4.21765 81.5527 4.56348 81.2391 4.72483C80.6928 4.99294 79.9284 5.24487 79.5459 5.64583C79.3018 5.90171 79.4698 5.97757 79.433 6.16002C79.3679 6.50726 78.7353 6.58636 78.6403 6.59946C78.6366 6.59941 78.827 6.35331 78.6506 6.41031C78.4572 6.35476 78.642 6.59674 78.6403 6.59946C78.5798 6.60133 78.1258 7.03173 78.0692 7.14747C78.0374 7.2092 78.1793 7.28462 78.1608 7.31466C77.7158 8.02932 77.2298 8.72257 76.6233 9.39185C76.6111 9.40256 76.4873 9.277 76.4603 9.30352C76.0797 9.67064 76.0418 10.0699 75.8613 10.4985C75.6788 10.9291 75.4032 11.188 74.9975 11.1939C74.7957 11.4822 74.3449 11.7619 74.0734 11.9068C73.8055 12.0498 73.998 12.3294 73.9824 12.3532C73.4809 13.0729 72.9261 13.2435 72.0863 13.6279C71.6826 13.82 70.8624 14.1489 70.3824 14.2667C70.023 14.3654 69.7651 14.3158 69.44 14.3909C69.3946 14.4009 69.4513 14.5488 69.4376 14.5555C69.0577 14.7587 69.2275 14.3771 69.1465 14.315C69.037 14.2289 68.9455 14.1561 68.8483 14.1044C68.6883 14.0171 68.5171 13.9917 68.2231 14.0418C68.122 14.0617 67.7411 14.5599 67.5242 14.5579C67.249 14.5549 67.3835 14.3844 67.0984 14.3776C67.0742 14.3764 67.0557 14.4942 66.8848 14.4519C66.0929 14.2567 65.297 13.8904 64.5758 13.5444C64.4768 13.4964 64.5202 13.7274 64.3744 13.6592C63.692 13.3393 63.0094 12.8951 62.5023 12.4187C62.3771 12.3004 62.541 12.2577 62.5341 12.2045C62.491 11.8825 62.0397 11.9657 61.9926 11.9368C60.9084 11.292 60.4369 10.4319 59.4713 9.71223C59.4183 9.67388 58.8034 9.58843 58.8648 9.20874C58.8685 9.18313 58.9373 8.80087 58.6464 8.82332C58.6283 8.82479 58.609 9.03769 58.4522 8.86025C58.2954 8.6828 57.949 8.49717 57.8478 8.14436C57.8156 8.03291 57.8672 7.63506 57.4745 7.61162C57.4474 7.60985 56.7175 7.71096 56.8742 7.31168C56.9 7.24613 57.2098 6.95676 56.8032 6.87412C56.7255 6.85935 56.7507 7.01072 56.5815 6.93455C56.3235 6.81992 56.1338 6.4967 55.7673 6.42865C55.7031 6.41695 55.3372 6.48029 55.3322 6.19438C55.3311 6.14934 55.4643 6.07658 55.3971 6.0008C55.0759 5.63868 54.6287 5.41578 54.3028 5.07605C54.1849 4.95504 54.3824 4.81299 54.2695 4.66561C54.1575 4.51821 53.8855 4.28309 53.677 4.28643C53.4713 4.29107 53.4609 4.69892 53.2244 4.60399C52.2027 4.20321 51.3188 3.72291 50.2797 3.6795C50.2568 3.6786 50.2401 3.68088 50.2276 3.68532C50.1568 3.71125 50.2189 3.80319 50.0326 3.8103C49.2155 3.80997 47.9359 4.34826 47.1225 4.50908C46.4602 4.6256 47.0831 4.08171 46.604 4.25043C46.3655 4.33901 46.3704 4.83802 46.3305 4.88013C45.9321 5.30346 45.5016 5.39394 45.117 5.77526C45.039 5.85364 45.2302 5.91885 45.1633 5.98377C44.9366 6.20642 44.6278 6.37023 44.4034 6.58775C44.3027 6.68606 44.4091 6.76622 44.306 6.84527C44.0621 7.03459 43.8209 7.18319 43.513 7.30531C43.4847 7.31661 43.5116 7.06785 43.3366 7.2247C43.0535 7.47954 42.626 7.72528 42.393 8.12784C42.3243 8.24761 42.5299 8.46401 42.1808 8.51767C42.1076 8.52921 41.9117 8.21915 41.8892 8.67533C41.8853 8.75123 41.7733 9.4466 41.3824 9.45059C41.2797 9.45159 40.9399 9.37252 40.8539 9.51917C40.8429 9.53996 41.0187 9.59343 40.931 9.69938C40.6197 10.071 40.2361 10.4085 39.8937 10.7843C39.8014 10.8856 40.0638 10.8732 39.9219 11.0206C39.533 11.4256 38.9612 11.8532 38.4767 12.1591C38.299 12.2708 38.3303 12.0736 38.3091 12.0711C37.971 12.023 38.049 12.372 37.993 12.4364C37.6455 12.8287 37.2266 12.9217 36.8348 13.2045C36.7245 13.2826 36.8863 13.3686 36.8703 13.3944C36.6952 13.6545 36.7354 13.306 36.5668 13.3668C36.0959 13.5335 35.6031 13.7903 35.13 14.0005C34.9561 14.0774 35.2224 14.1679 35.063 14.235C34.1184 14.6372 33.0024 14.8618 31.9725 14.7973C31.7783 14.7848 31.8961 14.6408 31.8551 14.6102C31.7777 14.5503 31.6928 14.5303 31.6069 14.5324C31.3845 14.5386 31.1517 14.6922 31.0828 14.709C30.6557 14.8142 30.4943 14.6698 30.1266 14.6359C28.2668 14.4829 26.3281 13.3313 25.1508 12.3769C23.5834 11.1273 22.6487 9.99267 21.3754 8.80242C21.2951 8.72645 21.2443 8.93725 21.1735 8.87348C20.2661 8.04579 19.4781 7.16574 18.5755 6.45286C18.5021 6.39469 18.4883 6.61579 18.3672 6.52782C18.1158 6.34628 17.83 6.09826 17.6257 5.86858C17.5262 5.75721 17.775 5.75838 17.6721 5.64835C17.4326 5.39241 17.1399 5.16636 16.8349 5.00072C16.7057 4.93153 16.791 5.20174 16.6326 5.10183C15.5411 4.4282 14.5163 4.04372 13.3988 3.72804C13.3235 3.70692 13.2708 3.3352 13.0875 3.40179C13.0724 3.50327 13.0715 3.62293 13.0644 3.73155C13.0384 3.73211 13.0123 3.73279 12.9862 3.73361C11.3685 3.77371 9.77227 4.4033 8.37883 5.6543C8.32008 5.70722 8.55121 5.75821 8.43963 5.86061C7.79452 6.45896 7.26619 7.15802 6.55211 7.81582C6.48156 7.88212 6.23258 7.64041 6.11007 7.90569C6.08737 7.95284 5.88654 8.33148 5.88806 8.46764C5.88933 8.48628 6.06521 8.50795 5.99447 8.62581C5.58292 9.3078 5.13747 10.0238 4.68904 10.702C4.61473 10.8149 4.52661 10.6112 4.47236 10.6912C4.09311 11.2506 3.91326 11.9692 3.53599 12.4987C3.28471 12.8522 3.06379 12.6138 2.71571 12.7166C2.66323 12.7391 2.56657 12.9867 2.40303 12.9467C1.99128 12.8431 1.60222 12.5551 1.15781 12.4602C1.06288 12.4329 1.02803 12.8644 0.884388 12.5551C0.879297 12.519 0.899475 12.2289 0.850089 12.1345C0.816651 12.0662 0.622798 12.0975 0.594977 11.9698C0.563556 11.8524 0.738594 11.7941 0.721589 11.61C0.702085 11.431 0.500037 11.4098 0.601235 11.0994ZM72.8188 12.482C72.5047 12.5007 72.7969 13.0246 72.9718 12.7311C72.9798 12.7162 72.8349 12.4804 72.8188 12.482ZM98.2001 4.28354C97.964 3.93788 97.6517 4.25274 97.8078 4.50977C97.9641 4.76715 98.2707 4.38821 98.2001 4.28354ZM101.402 5.16404C101.126 4.83768 100.777 5.61315 101.207 5.59121C101.232 5.59021 101.418 5.18301 101.402 5.16404ZM3.04117 11.6843C3.03157 11.6862 2.95199 11.8547 2.95579 11.8664C3.09144 12.0337 3.25439 11.6869 3.04117 11.6843ZM104.534 6.24506C104.477 6.09237 104.111 6.07305 104.187 6.26354C104.248 6.41662 104.606 6.43482 104.534 6.24506ZM60.9078 8.94456C60.911 8.93544 60.8124 8.8309 60.7798 8.86936C60.675 8.99382 60.8522 9.09832 60.9078 8.94456ZM109.505 8.88414C108.822 8.42062 108.728 7.55927 109.476 8.0977C109.607 8.19348 109.059 8.10652 109.206 8.26903C109.473 8.56539 109.924 8.32604 110.133 8.74736C110.158 8.81338 109.541 8.90868 109.503 8.88416C109.504 8.88416 109.505 8.88415 109.505 8.88414ZM72.2872 11.976C72.279 11.9728 72.109 12.0749 72.1087 12.0834C72.1173 12.3043 72.4706 12.0928 72.2872 11.976ZM54.8372 3.12827C54.8385 3.10673 54.4366 2.8526 54.4148 2.86089C54.0557 3.01055 54.844 3.50899 54.8372 3.12827ZM81.7918 2.55868C81.9253 2.29846 82.1826 2.18046 82.4326 2.34945C82.2132 2.41048 82.0015 2.48699 81.7918 2.55868Z" fill="#FF7300"/>
</svg>
