<svg width="190" height="51" viewBox="0 0 190 51" fill="none" xmlns="http://www.w3.org/2000/svg">
<path d="M81.6795 17.7015V33H78.5505V24.201C78.5505 23.998 78.554 23.7775 78.561 23.5395C78.575 23.3015 78.596 23.06 78.624 22.815L74.5605 30.6795C74.4345 30.9245 74.263 31.11 74.046 31.236C73.836 31.362 73.5945 31.425 73.3215 31.425H72.8385C72.5655 31.425 72.3205 31.362 72.1035 31.236C71.8935 31.11 71.7255 30.9245 71.5995 30.6795L67.536 22.794C67.557 23.046 67.5745 23.2945 67.5885 23.5395C67.6025 23.7775 67.6095 23.998 67.6095 24.201V33H64.4805V17.7015H67.1895C67.3435 17.7015 67.4765 17.705 67.5885 17.712C67.7075 17.719 67.8125 17.74 67.9035 17.775C67.9945 17.81 68.075 17.866 68.145 17.943C68.222 18.013 68.2955 18.1145 68.3655 18.2475L72.303 26.007C72.443 26.273 72.576 26.5495 72.702 26.8365C72.835 27.1235 72.961 27.4175 73.08 27.7185C73.199 27.4105 73.3215 27.1095 73.4475 26.8155C73.5805 26.5215 73.7205 26.2415 73.8675 25.9755L77.7945 18.2475C77.8645 18.1145 77.9345 18.013 78.0045 17.943C78.0815 17.866 78.1655 17.81 78.2565 17.775C78.3475 17.74 78.449 17.719 78.561 17.712C78.68 17.705 78.8165 17.7015 78.9705 17.7015H81.6795ZM92.7247 27.1515L91.3072 22.962C91.2022 22.696 91.0902 22.3845 90.9712 22.0275C90.8522 21.6635 90.7332 21.2715 90.6142 20.8515C90.5092 21.2785 90.3972 21.674 90.2782 22.038C90.1592 22.402 90.0472 22.717 89.9422 22.983L88.5352 27.1515H92.7247ZM98.3632 33H95.6122C95.3042 33 95.0557 32.93 94.8667 32.79C94.6777 32.643 94.5342 32.4575 94.4362 32.2335L93.5332 29.5665H87.7162L86.8132 32.2335C86.7362 32.4295 86.5962 32.608 86.3932 32.769C86.1972 32.923 85.9522 33 85.6582 33H82.8862L88.8082 17.7015H92.4412L98.3632 33ZM104.546 24.894C105.029 24.894 105.439 24.8345 105.775 24.7155C106.118 24.5895 106.398 24.418 106.615 24.201C106.832 23.984 106.989 23.732 107.087 23.445C107.185 23.151 107.234 22.836 107.234 22.5C107.234 21.828 107.014 21.303 106.573 20.925C106.139 20.547 105.463 20.358 104.546 20.358H103.118V24.894H104.546ZM112.085 33H108.872C108.277 33 107.85 32.776 107.591 32.328L105.05 27.8865C104.931 27.6975 104.798 27.561 104.651 27.477C104.504 27.386 104.294 27.3405 104.021 27.3405H103.118V33H99.5694V17.7015H104.546C105.652 17.7015 106.594 17.817 107.371 18.048C108.155 18.272 108.792 18.587 109.282 18.993C109.779 19.399 110.139 19.8785 110.363 20.4315C110.587 20.9845 110.699 21.5865 110.699 22.2375C110.699 22.7345 110.633 23.2035 110.5 23.6445C110.367 24.0855 110.171 24.495 109.912 24.873C109.653 25.244 109.331 25.5765 108.946 25.8705C108.568 26.1645 108.13 26.406 107.633 26.595C107.864 26.714 108.081 26.8645 108.284 27.0465C108.487 27.2215 108.669 27.4315 108.83 27.6765L112.085 33ZM124.057 20.5155H119.752V33H116.203V20.5155H111.898V17.7015H124.057V20.5155ZM129.43 33H125.86V17.7015H129.43V33ZM146.105 17.7015L139.973 33H136.76L130.628 17.7015H133.484C133.792 17.7015 134.041 17.775 134.23 17.922C134.419 18.062 134.562 18.244 134.66 18.468L137.621 26.658C137.761 27.015 137.898 27.407 138.031 27.834C138.164 28.254 138.29 28.695 138.409 29.157C138.507 28.695 138.615 28.254 138.734 27.834C138.86 27.407 138.993 27.015 139.133 26.658L142.073 18.468C142.15 18.272 142.287 18.097 142.483 17.943C142.686 17.782 142.934 17.7015 143.228 17.7015H146.105ZM161.773 25.3455C161.773 26.4515 161.58 27.4805 161.195 28.4325C160.817 29.3845 160.282 30.214 159.589 30.921C158.896 31.621 158.059 32.1705 157.079 32.5695C156.106 32.9685 155.025 33.168 153.835 33.168C152.645 33.168 151.56 32.9685 150.58 32.5695C149.6 32.1705 148.76 31.621 148.06 30.921C147.367 30.214 146.828 29.3845 146.443 28.4325C146.065 27.4805 145.876 26.4515 145.876 25.3455C145.876 24.2395 146.065 23.2105 146.443 22.2585C146.828 21.3065 147.367 20.4805 148.06 19.7805C148.76 19.0805 149.6 18.531 150.58 18.132C151.56 17.733 152.645 17.5335 153.835 17.5335C155.025 17.5335 156.106 17.7365 157.079 18.1425C158.059 18.5415 158.896 19.091 159.589 19.791C160.282 20.491 160.817 21.317 161.195 22.269C161.58 23.221 161.773 24.2465 161.773 25.3455ZM158.14 25.3455C158.14 24.5895 158.042 23.9105 157.846 23.3085C157.65 22.6995 157.366 22.185 156.995 21.765C156.631 21.345 156.183 21.023 155.651 20.799C155.119 20.575 154.514 20.463 153.835 20.463C153.149 20.463 152.536 20.575 151.997 20.799C151.465 21.023 151.014 21.345 150.643 21.765C150.279 22.185 149.999 22.6995 149.803 23.3085C149.607 23.9105 149.509 24.5895 149.509 25.3455C149.509 26.1085 149.607 26.7945 149.803 27.4035C149.999 28.0055 150.279 28.5165 150.643 28.9365C151.014 29.3565 151.465 29.6785 151.997 29.9025C152.536 30.1195 153.149 30.228 153.835 30.228C154.514 30.228 155.119 30.1195 155.651 29.9025C156.183 29.6785 156.631 29.3565 156.995 28.9365C157.366 28.5165 157.65 28.0055 157.846 27.4035C158.042 26.7945 158.14 26.1085 158.14 25.3455Z" fill="white"/>
<circle cx="25.5" cy="25.5" r="25.5" fill="#FF7300"/>
<g clip-path="url(#clip0_795_51)">
<path opacity="0.948" fill-rule="evenodd" clip-rule="evenodd" d="M41.7684 36.7367C41.7684 37.0552 41.7684 37.3738 41.7684 37.6923C41.3806 38.9912 40.5099 39.5539 39.1563 39.3807C38.2347 39.0102 37.3321 38.5961 36.4486 38.1383C36.1745 38.3225 35.8878 38.3544 35.5885 38.2339C31.3275 36.2414 27.0589 34.2664 22.7826 32.3088C20.8709 32.2557 18.9595 32.2663 17.0486 32.3406C17.2102 32.8679 17.3589 33.3988 17.4946 33.9334C17.4514 34.3588 17.2178 34.5924 16.7937 34.6342C16.7937 35.42 16.7937 36.2058 16.7937 36.9915C18.7264 36.9809 20.659 36.9915 22.5914 37.0234C22.9669 37.2668 23.0625 37.596 22.8781 38.0109C22.7538 38.1634 22.5945 38.259 22.4003 38.2976C18.1742 38.3401 13.948 38.3401 9.72184 38.2976C9.48892 38.245 9.29779 38.1283 9.14844 37.9472C9.14844 37.6286 9.14844 37.3101 9.14844 36.9915C9.47946 35.6515 10.3077 34.7702 11.6332 34.3475C11.5463 34.2236 11.4932 34.0855 11.4739 33.9334C11.1298 31.6206 10.8007 29.3058 10.4864 26.9889C10.6066 25.3932 11.4348 24.3845 12.9711 23.9626C13.5535 23.8961 14.1269 23.9385 14.6913 24.0901C15.8298 24.6807 16.9766 25.2328 18.1317 25.7465C17.9549 25.0708 17.7637 24.4019 17.5583 23.7397C15.3523 22.7247 13.1437 21.7159 10.9323 20.7134C9.62289 19.7303 9.35743 18.5092 10.136 17.05C11.4229 15.8266 12.729 14.6268 14.0542 13.4503C14.1513 13.3861 14.2575 13.3542 14.3727 13.3548C14.6659 12.5622 15.1968 11.9781 15.9655 11.6027C16.6604 11.397 17.2975 11.5032 17.8768 11.9213C18.3593 12.361 18.7946 12.8388 19.1829 13.3548C19.4279 14.013 19.3854 14.6501 19.0555 15.2661C18.6835 15.7974 18.2057 16.201 17.622 16.4766C17.4671 16.7273 17.276 16.9503 17.0486 17.1456C16.6903 17.3975 16.3505 17.6736 16.0292 17.9738C17.6034 18.226 19.1749 18.4596 20.7438 18.6746C20.3149 17.6229 20.3256 16.5717 20.7757 15.5209C21.4878 13.9487 22.7089 13.2161 24.4391 13.3229C26.2973 13.7052 27.3166 14.8414 27.4972 16.7315C27.4325 17.8287 27.0503 18.795 26.3504 19.6303C26.3929 19.6515 26.4353 19.6728 26.4778 19.694C28.2985 19.9468 30.1142 20.2122 31.9251 20.4904C33.0776 19.8982 34.235 19.3142 35.3973 18.7383C35.726 18.1542 36.1508 17.6446 36.6716 17.2093C37.4149 16.7421 38.1581 16.7421 38.9014 17.2093C39.3156 17.6234 39.7297 18.0375 40.1438 18.4516C40.6416 19.2864 40.5991 20.0934 40.0164 20.8727C39.653 21.3032 39.2177 21.6323 38.7103 21.8602C38.6354 22.0313 38.5292 22.1799 38.3918 22.3062C37.075 23.1132 35.7584 23.9201 34.4417 24.7272C34.1557 24.8426 33.8585 24.9063 33.5497 24.9183C31.1499 24.9395 28.7502 24.9608 26.3504 24.982C25.871 25.5782 25.4038 26.1834 24.9487 26.7978C26.3292 27.488 27.7095 28.1782 29.09 28.8684C29.4282 29.4682 29.2689 29.8611 28.6121 30.047C27.009 29.3425 25.4268 28.5886 23.8657 27.7853C22.2304 27.7641 20.5952 27.7428 18.9599 27.7216C17.3345 26.8982 15.6993 26.0913 14.0542 25.3006C12.7552 25.1556 12.0119 25.729 11.8243 27.0208C12.1366 29.1111 12.4339 31.203 12.7162 33.2963C13.7781 33.2963 14.8399 33.2963 15.9018 33.2963C15.5572 32.0138 15.2175 30.7289 14.8824 29.4418C14.9295 28.8868 15.2269 28.6744 15.7744 28.8047C15.9761 28.879 16.1141 29.017 16.1885 29.2188C16.3415 29.7731 16.5007 30.3253 16.6663 30.8753C18.811 30.9283 20.9559 30.9602 23.1011 30.9708C27.217 32.8595 31.3263 34.7602 35.4292 36.673C35.8559 35.8193 36.2488 34.9486 36.6079 34.0608C35.3343 33.3816 34.0388 32.7339 32.7215 32.1176C32.3052 31.7301 32.3052 31.3478 32.7215 30.9708C32.9745 30.849 33.2293 30.849 33.486 30.9708C34.9592 31.6755 36.4246 32.3976 37.8821 33.137C37.9808 33.2144 38.055 33.3099 38.1051 33.4237C38.1188 33.6649 38.1293 33.8985 38.1369 34.1245C39.1032 34.5845 40.0589 35.0623 41.0039 35.558C41.3812 35.8787 41.636 36.2715 41.7684 36.7367ZM16.4115 12.8451C16.6121 12.8267 16.8032 12.8586 16.9849 12.9407C17.3374 13.2718 17.6666 13.6222 17.9724 13.9919C18.0359 14.2281 17.9934 14.4404 17.845 14.629C17.6219 14.9164 17.3459 15.1287 17.0167 15.2661C16.9276 15.2198 16.832 15.188 16.73 15.1705C16.3796 14.8201 16.0292 14.4697 15.6788 14.1193C15.57 13.8685 15.6124 13.6349 15.8062 13.4185C16.0013 13.2126 16.2031 13.0214 16.4115 12.8451ZM23.7382 14.629C25.1622 14.6409 25.948 15.3523 26.0955 16.7633C26.0764 17.9286 25.5455 18.7568 24.5028 19.248C23.4161 19.485 22.5772 19.1346 21.9862 18.1968C21.6372 17.2547 21.7434 16.3628 22.3047 15.5209C22.6817 15.046 23.1595 14.7487 23.7382 14.629ZM14.4364 14.8838C14.9333 15.3488 15.4217 15.8266 15.9018 16.3173C15.274 16.8709 14.6369 17.4124 13.9905 17.942C13.6125 18.5768 13.7824 18.9697 14.5002 19.1206C16.6289 19.4232 18.7526 19.7524 20.8712 20.1081C21.5721 22.1894 22.2729 24.2706 22.9737 26.3518C21.8547 26.4362 20.7398 26.4362 19.6289 26.3518C19.2142 24.5868 18.7894 22.8241 18.3547 21.0638C18.246 20.6027 17.9593 20.4221 17.4946 20.5223C17.163 20.6224 17.0144 20.8454 17.0486 21.1912C17.0675 21.4896 17.1312 21.7763 17.2397 22.0513C15.3342 21.2582 13.4441 20.4087 11.5695 19.5029C11.0336 19.0547 10.9168 18.5132 11.219 17.8782C12.3041 16.8886 13.3765 15.8905 14.4364 14.8838ZM37.6272 18.1968C37.7858 18.1839 37.9345 18.2158 38.0732 18.2924C38.4469 18.6448 38.7973 19.0164 39.1244 19.4073C39.1842 19.6227 39.1417 19.8138 38.997 19.9807C38.7899 20.2306 38.5457 20.4323 38.2643 20.586C38.1069 20.6309 37.9582 20.6097 37.8184 20.5223C37.5104 20.2143 37.2025 19.9064 36.8945 19.5984C36.7212 19.3985 36.7 19.1862 36.8308 18.9613C37.0896 18.6918 37.3551 18.4369 37.6272 18.1968ZM35.4611 20.1718C35.5081 20.1635 35.5506 20.1741 35.5885 20.2037C36.0577 20.6516 36.5037 21.1188 36.9264 21.6053C35.8965 22.2584 34.8558 22.8955 33.8046 23.5167C31.1316 23.6002 28.4558 23.6427 25.777 23.6441C25.6763 23.6891 25.5807 23.7422 25.4903 23.8034C25.0688 24.416 24.6229 25.0107 24.1524 25.5873C23.8892 24.872 23.6449 24.1499 23.4197 23.4211C23.9124 22.5846 24.4221 21.7564 24.9487 20.9364C25.1148 20.863 25.2847 20.8524 25.4584 20.9045C27.6565 21.2124 29.8545 21.5204 32.0525 21.8283C33.2375 21.3685 34.3736 20.8164 35.4611 20.1718ZM22.4003 20.363C22.7693 20.4929 23.1303 20.6203 23.4834 20.7452C23.2691 21.0553 23.0673 21.3738 22.8781 21.7009C22.6876 21.2677 22.5284 20.8217 22.4003 20.363ZM13.1622 34.6342C13.9268 34.6342 14.6913 34.6342 15.4558 34.6342C15.4664 35.3354 15.4558 36.0362 15.424 36.7367C15.4001 36.795 15.3683 36.8482 15.3284 36.896C14.5044 36.9685 13.6761 37.0004 12.8437 36.9915C12.0791 36.9809 11.3146 36.9703 10.5501 36.9597C10.9614 36.0634 11.6623 35.5963 12.6525 35.558C13.1036 35.413 13.2735 35.105 13.1622 34.6342ZM37.5635 35.3988C38.4193 35.7734 39.2687 36.1663 40.112 36.5774C40.5032 36.9585 40.5351 37.3726 40.2075 37.8198C39.9912 38.0557 39.7257 38.13 39.4111 38.0428C38.6254 37.6711 37.8396 37.2994 37.0538 36.9278C36.9829 36.8499 36.9722 36.765 37.022 36.673C37.1857 36.2395 37.3662 35.8148 37.5635 35.3988Z" fill="white"/>
<path opacity="0.884" fill-rule="evenodd" clip-rule="evenodd" d="M30.683 29.8554C31.2075 29.7646 31.526 29.9769 31.6387 30.4925C31.5987 30.904 31.3757 31.1377 30.9697 31.1933C30.4265 31.0959 30.2141 30.7774 30.3326 30.2376C30.4193 30.0769 30.536 29.9495 30.683 29.8554Z" fill="white"/>
<path opacity="0.881" fill-rule="evenodd" clip-rule="evenodd" d="M24.4367 36.9912C25.2172 36.9179 25.5039 37.2576 25.2968 38.0106C24.9145 38.4353 24.5322 38.4353 24.15 38.0106C23.9951 37.5946 24.0906 37.2548 24.4367 36.9912Z" fill="white"/>
</g>
<defs>
<clipPath id="clip0_795_51">
<rect width="32.62" height="32.62" fill="white" transform="translate(9.17969 9.18164)"/>
</clipPath>
</defs>
</svg>
