<svg width="193" height="50" viewBox="0 0 193 50" fill="none" xmlns="http://www.w3.org/2000/svg">
<path d="M87.2875 17V35H84.7125V22.6625C84.7125 22.4625 84.7167 22.2458 84.725 22.0125C84.7417 21.7708 84.7625 21.5292 84.7875 21.2875L79 31.975C78.775 32.4167 78.4292 32.6375 77.9625 32.6375H77.55C77.075 32.6375 76.7292 32.4167 76.5125 31.975L70.6375 21.2625C70.6625 21.5042 70.6792 21.7458 70.6875 21.9875C70.7042 22.2292 70.7125 22.4542 70.7125 22.6625V35H68.1375V17H70.325C70.5833 17 70.7833 17.025 70.925 17.075C71.0667 17.1167 71.1958 17.2542 71.3125 17.4875L77.0875 27.95C77.2125 28.1917 77.3292 28.4417 77.4375 28.7C77.5542 28.95 77.6583 29.2083 77.75 29.475C77.85 29.2083 77.9542 28.9458 78.0625 28.6875C78.1792 28.4208 78.3 28.1667 78.425 27.925L84.1125 17.4875C84.2292 17.2542 84.3583 17.1167 84.5 17.075C84.6417 17.025 84.8417 17 85.1 17H87.2875ZM101.076 28.25L98.6006 21.675C98.4006 21.1667 98.1964 20.5208 97.9881 19.7375C97.8964 20.1292 97.7964 20.4917 97.6881 20.825C97.5798 21.15 97.4798 21.4375 97.3881 21.6875L94.9131 28.25H101.076ZM106.613 35H104.351C104.092 35 103.884 34.9375 103.726 34.8125C103.567 34.6792 103.446 34.5167 103.363 34.325L101.863 30.35H94.1131L92.6131 34.325C92.5464 34.4917 92.4298 34.6458 92.2631 34.7875C92.0964 34.9292 91.8881 35 91.6381 35H89.3756L96.5131 17H99.4756L106.613 35ZM113.939 25.625C114.605 25.625 115.189 25.5458 115.689 25.3875C116.189 25.2208 116.605 24.9917 116.939 24.7C117.272 24.4083 117.522 24.0625 117.689 23.6625C117.855 23.2542 117.939 22.8042 117.939 22.3125C117.939 21.3292 117.614 20.5792 116.964 20.0625C116.314 19.5458 115.33 19.2875 114.014 19.2875H111.639V25.625H113.939ZM122.414 35H119.801C119.285 35 118.91 34.8 118.676 34.4L114.476 28.3375C114.335 28.1292 114.18 27.9792 114.014 27.8875C113.847 27.7958 113.597 27.75 113.264 27.75H111.639V35H108.714V17H114.014C115.197 17 116.214 17.1208 117.064 17.3625C117.922 17.6042 118.626 17.95 119.176 18.4C119.726 18.8417 120.13 19.375 120.389 20C120.655 20.625 120.789 21.3208 120.789 22.0875C120.789 22.7125 120.693 23.2958 120.501 23.8375C120.318 24.3792 120.047 24.8708 119.689 25.3125C119.339 25.7542 118.905 26.1375 118.389 26.4625C117.872 26.7875 117.285 27.0417 116.626 27.225C116.985 27.4417 117.293 27.7458 117.551 28.1375L122.414 35ZM136.433 19.4375H130.821V35H127.908V19.4375H122.283V17H136.433V19.4375ZM141.876 35H138.938V17H141.876V35ZM161.203 17L153.903 35H151.265L143.965 17H146.303C146.561 17 146.77 17.0667 146.928 17.2C147.086 17.325 147.207 17.4833 147.29 17.675L151.928 29.4125C152.178 30.0708 152.407 30.8292 152.615 31.6875C152.707 31.2625 152.803 30.8583 152.903 30.475C153.011 30.0917 153.128 29.7375 153.253 29.4125L157.878 17.675C157.945 17.5083 158.061 17.3542 158.228 17.2125C158.395 17.0708 158.603 17 158.853 17H161.203ZM179.654 26C179.654 27.3333 179.438 28.5625 179.004 29.6875C178.571 30.8125 177.959 31.7833 177.167 32.6C176.384 33.4083 175.438 34.0417 174.329 34.5C173.229 34.9583 172.004 35.1875 170.654 35.1875C169.313 35.1875 168.088 34.9583 166.979 34.5C165.879 34.0417 164.934 33.4083 164.142 32.6C163.35 31.7833 162.738 30.8125 162.304 29.6875C161.871 28.5625 161.654 27.3333 161.654 26C161.654 24.6667 161.871 23.4375 162.304 22.3125C162.738 21.1875 163.35 20.2167 164.142 19.4C164.934 18.5833 165.879 17.9458 166.979 17.4875C168.088 17.0292 169.313 16.8 170.654 16.8C172.004 16.8 173.229 17.0292 174.329 17.4875C175.438 17.9458 176.384 18.5833 177.167 19.4C177.959 20.2167 178.571 21.1875 179.004 22.3125C179.438 23.4375 179.654 24.6667 179.654 26ZM176.667 26C176.667 24.9667 176.525 24.0375 176.242 23.2125C175.967 22.3875 175.567 21.6875 175.042 21.1125C174.525 20.5375 173.896 20.0958 173.154 19.7875C172.413 19.4792 171.579 19.325 170.654 19.325C169.738 19.325 168.909 19.4792 168.167 19.7875C167.425 20.0958 166.792 20.5375 166.267 21.1125C165.742 21.6875 165.338 22.3875 165.054 23.2125C164.771 24.0375 164.629 24.9667 164.629 26C164.629 27.0417 164.771 27.975 165.054 28.8C165.338 29.625 165.742 30.325 166.267 30.9C166.792 31.4667 167.425 31.9042 168.167 32.2125C168.909 32.5125 169.738 32.6625 170.654 32.6625C171.579 32.6625 172.413 32.5125 173.154 32.2125C173.896 31.9042 174.525 31.4667 175.042 30.9C175.567 30.325 175.967 29.625 176.242 28.8C176.525 27.975 176.667 27.0417 176.667 26Z" fill="white"/>
<circle cx="25" cy="25" r="25" fill="white"/>
<g clip-path="url(#clip0_644_259)">
<path opacity="0.948" fill-rule="evenodd" clip-rule="evenodd" d="M39.9688 35.1865C39.9688 35.4893 39.9688 35.792 39.9688 36.0947C39.6002 37.329 38.7727 37.8639 37.4863 37.6992C36.6105 37.3471 35.7528 36.9536 34.9131 36.5186C34.6526 36.6936 34.3802 36.7239 34.0957 36.6094C30.0463 34.7158 25.9897 32.8389 21.9258 30.9785C20.109 30.9281 18.2926 30.9381 16.4766 31.0088C16.6301 31.5099 16.7714 32.0144 16.9004 32.5225C16.8594 32.9267 16.6374 33.1488 16.2344 33.1885C16.2344 33.9352 16.2344 34.682 16.2344 35.4287C18.0711 35.4186 19.9076 35.4287 21.7441 35.459C22.1009 35.6903 22.1918 36.0032 22.0166 36.3975C21.8984 36.5424 21.747 36.6332 21.5625 36.6699C17.5462 36.7103 13.5299 36.7103 9.51367 36.6699C9.29233 36.62 9.11069 36.509 8.96875 36.3369C8.96875 36.0342 8.96875 35.7315 8.96875 35.4287C9.28333 34.1552 10.0704 33.3177 11.3301 32.916C11.2475 32.7983 11.1971 32.6671 11.1787 32.5225C10.8517 30.3245 10.5389 28.1246 10.2402 25.9229C10.3545 24.4064 11.1416 23.4478 12.6016 23.0469C13.1551 22.9836 13.7 23.0239 14.2363 23.168C15.3183 23.7293 16.4081 24.254 17.5059 24.7422C17.3378 24.1 17.1562 23.4643 16.9609 22.835C14.8645 21.8705 12.7656 20.9118 10.6641 19.959C9.41964 19.0248 9.16736 17.8643 9.90723 16.4776C11.1303 15.3149 12.3715 14.1747 13.6309 13.0567C13.7232 12.9956 13.8241 12.9653 13.9336 12.9658C14.2122 12.2126 14.7168 11.6576 15.4473 11.3008C16.1077 11.1053 16.7131 11.2062 17.2637 11.6035C17.7221 12.0214 18.1358 12.4755 18.5049 12.9658C18.7377 13.5914 18.6973 14.1968 18.3838 14.7822C18.0303 15.2872 17.5762 15.6707 17.0215 15.9326C16.8743 16.1709 16.6927 16.3828 16.4766 16.5684C16.1361 16.8078 15.8132 17.0702 15.5078 17.3555C17.0038 17.5951 18.4973 17.8171 19.9883 18.0215C19.5807 17.022 19.5908 16.023 20.0186 15.0244C20.6953 13.5303 21.8558 12.834 23.5 12.9356C25.2659 13.2989 26.2347 14.3786 26.4062 16.1748C26.3448 17.2176 25.9815 18.1359 25.3164 18.9297C25.3568 18.9499 25.3971 18.9701 25.4375 18.9902C27.1677 19.2304 28.8933 19.4827 30.6143 19.7471C31.7095 19.1843 32.8094 18.6293 33.9141 18.082C34.2264 17.5269 34.6301 17.0426 35.125 16.6289C35.8314 16.1849 36.5377 16.1849 37.2441 16.6289C37.6377 17.0225 38.0312 17.416 38.4248 17.8096C38.8979 18.6029 38.8575 19.3698 38.3037 20.1104C37.9584 20.5195 37.5447 20.8323 37.0625 21.0488C36.9913 21.2115 36.8904 21.3527 36.7598 21.4727C35.5084 22.2396 34.2572 23.0065 33.0059 23.7734C32.7341 23.8831 32.4516 23.9436 32.1582 23.9551C29.8776 23.9753 27.597 23.9955 25.3164 24.0156C24.8608 24.5822 24.4168 25.1574 23.9844 25.7412C25.2962 26.3971 26.6081 27.0531 27.9199 27.709C28.2414 28.279 28.09 28.6524 27.4658 28.8291C25.9423 28.1595 24.4387 27.4431 22.9551 26.6797C21.401 26.6595 19.847 26.6393 18.293 26.6192C16.7483 25.8367 15.1942 25.0698 13.6309 24.3184C12.3964 24.1806 11.69 24.7255 11.5117 25.9531C11.8085 27.9397 12.091 29.9277 12.3594 31.917C13.3685 31.917 14.3776 31.917 15.3867 31.917C15.0593 30.6982 14.7364 29.4771 14.418 28.2539C14.4627 27.7265 14.7453 27.5247 15.2656 27.6484C15.4574 27.7191 15.5885 27.8503 15.6592 28.042C15.8046 28.5688 15.9559 29.0936 16.1133 29.6162C18.1514 29.6667 20.1898 29.6969 22.2285 29.707C26.14 31.5019 30.0452 33.3082 33.9443 35.126C34.3499 34.3147 34.7233 33.4872 35.0645 32.6436C33.8542 31.9981 32.623 31.3825 31.3711 30.7969C30.9755 30.4286 30.9755 30.0653 31.3711 29.707C31.6115 29.5912 31.8537 29.5912 32.0977 29.707C33.4977 30.3767 34.8903 31.063 36.2754 31.7656C36.3692 31.8391 36.4398 31.93 36.4873 32.0381C36.5003 32.2673 36.5104 32.4893 36.5176 32.7041C37.4359 33.1412 38.3441 33.5953 39.2422 34.0664C39.6007 34.3711 39.8429 34.7445 39.9688 35.1865ZM15.8711 12.4815C16.0618 12.464 16.2434 12.4943 16.416 12.5723C16.751 12.887 17.0639 13.22 17.3545 13.5713C17.4148 13.7958 17.3745 13.9976 17.2334 14.1768C17.0214 14.4499 16.7591 14.6517 16.4463 14.7822C16.3616 14.7382 16.2708 14.708 16.1738 14.6914C15.8408 14.3584 15.5078 14.0254 15.1748 13.6924C15.0714 13.454 15.1117 13.232 15.2959 13.0264C15.4813 12.8307 15.673 12.649 15.8711 12.4815ZM22.834 14.1768C24.1873 14.1881 24.934 14.8642 25.0742 16.2051C25.0561 17.3125 24.5515 18.0996 23.5605 18.5664C22.5278 18.7916 21.7306 18.4586 21.1689 17.5674C20.8373 16.6721 20.9382 15.8244 21.4717 15.0244C21.8299 14.5731 22.284 14.2905 22.834 14.1768ZM13.9941 14.419C14.4663 14.8608 14.9305 15.3149 15.3867 15.7813C14.7901 16.3073 14.1847 16.8219 13.5703 17.3252C13.2111 17.9285 13.3726 18.3019 14.0547 18.4453C16.0777 18.7329 18.0959 19.0457 20.1094 19.3838C20.7754 21.3617 21.4414 23.3395 22.1074 25.3174C21.044 25.3976 19.9844 25.3976 18.9287 25.3174C18.5346 23.6401 18.1309 21.9649 17.7178 20.292C17.6145 19.8538 17.342 19.6822 16.9004 19.7774C16.5853 19.8725 16.444 20.0844 16.4766 20.4131C16.4945 20.6966 16.555 20.9691 16.6582 21.2305C14.8473 20.4768 13.051 19.6695 11.2695 18.8086C10.7603 18.3827 10.6493 17.8681 10.9365 17.2647C11.9676 16.3242 12.9869 15.3756 13.9941 14.419ZM36.0332 17.5674C36.1839 17.5552 36.3252 17.5854 36.457 17.6582C36.8122 17.9931 37.1452 18.3463 37.4561 18.7178C37.5128 18.9224 37.4725 19.1041 37.335 19.2627C37.1381 19.5002 36.906 19.6919 36.6387 19.8379C36.4891 19.8806 36.3477 19.8605 36.2148 19.7774C35.9222 19.4847 35.6295 19.192 35.3369 18.8994C35.1722 18.7094 35.152 18.5076 35.2764 18.294C35.5223 18.0378 35.7746 17.7956 36.0332 17.5674ZM33.9746 19.4443C34.0194 19.4364 34.0597 19.4465 34.0957 19.4746C34.5416 19.9003 34.9655 20.3443 35.3672 20.8067C34.3884 21.4273 33.3994 22.0328 32.4004 22.6231C29.8602 22.7024 27.3172 22.7428 24.7715 22.7442C24.6758 22.787 24.5849 22.8374 24.499 22.8955C24.0985 23.4777 23.6747 24.0429 23.2275 24.5908C22.9774 23.9111 22.7453 23.2248 22.5312 22.5322C22.9995 21.7373 23.4839 20.9502 23.9844 20.1709C24.1422 20.1012 24.3036 20.0911 24.4688 20.1406C26.5576 20.4333 28.6465 20.7259 30.7354 21.0186C31.8615 20.5816 32.9412 20.0569 33.9746 19.4443ZM21.5625 19.626C21.9131 19.7494 22.2562 19.8705 22.5918 19.9893C22.3881 20.2839 22.1964 20.5866 22.0166 20.8975C21.8356 20.4858 21.6842 20.0619 21.5625 19.626ZM12.7832 33.1885C13.5098 33.1885 14.2363 33.1885 14.9629 33.1885C14.973 33.8548 14.9629 34.5208 14.9326 35.1865C14.91 35.242 14.8797 35.2925 14.8418 35.3379C14.0587 35.4069 13.2716 35.4371 12.4805 35.4287C11.7539 35.4186 11.0273 35.4086 10.3008 35.3984C10.6917 34.5467 11.3577 34.1027 12.2988 34.0664C12.7275 33.9286 12.889 33.6359 12.7832 33.1885ZM35.9727 33.915C36.7859 34.2711 37.5932 34.6445 38.3945 35.0352C38.7663 35.3973 38.7966 35.7908 38.4854 36.2158C38.2797 36.44 38.0274 36.5106 37.7285 36.4277C36.9818 36.0746 36.235 35.7213 35.4883 35.3682C35.4208 35.2941 35.4107 35.2134 35.458 35.126C35.6136 34.714 35.7851 34.3104 35.9727 33.915Z" fill="#FF5001"/>
<path opacity="0.884" fill-rule="evenodd" clip-rule="evenodd" d="M29.4336 28.6473C29.932 28.561 30.2347 28.7628 30.3418 29.2528C30.3038 29.6439 30.0918 29.8659 29.706 29.9188C29.1898 29.8263 28.9879 29.5235 29.1006 29.0106C29.1829 28.8578 29.2939 28.7367 29.4336 28.6473Z" fill="#FF5001"/>
<path opacity="0.881" fill-rule="evenodd" clip-rule="evenodd" d="M23.5009 35.4282C24.2427 35.3585 24.5152 35.6814 24.3183 36.397C23.955 36.8006 23.5917 36.8006 23.2284 36.397C23.0812 36.0017 23.1721 35.6787 23.5009 35.4282Z" fill="#FF5001"/>
</g>
<defs>
<clipPath id="clip0_644_259">
<rect width="31" height="31" fill="white" transform="translate(9 9)"/>
</clipPath>
</defs>
</svg>
