<svg width="51" height="51" viewBox="0 0 51 51" fill="none" xmlns="http://www.w3.org/2000/svg">
<circle cx="25.5" cy="25.5" r="25.5" fill="#FF7300"/>
<g clip-path="url(#clip0_836_2)">
<path opacity="0.948" fill-rule="evenodd" clip-rule="evenodd" d="M41.7684 36.7367C41.7684 37.0552 41.7684 37.3738 41.7684 37.6923C41.3806 38.9912 40.5099 39.5539 39.1563 39.3807C38.2347 39.0102 37.3321 38.5961 36.4486 38.1383C36.1745 38.3225 35.8878 38.3544 35.5885 38.2339C31.3275 36.2414 27.0589 34.2664 22.7826 32.3088C20.8709 32.2557 18.9595 32.2663 17.0486 32.3406C17.2102 32.8679 17.3589 33.3988 17.4946 33.9334C17.4514 34.3588 17.2178 34.5924 16.7937 34.6342C16.7937 35.42 16.7937 36.2058 16.7937 36.9915C18.7264 36.9809 20.659 36.9915 22.5914 37.0234C22.9669 37.2668 23.0625 37.596 22.8781 38.0109C22.7538 38.1634 22.5945 38.259 22.4003 38.2976C18.1742 38.3401 13.948 38.3401 9.72184 38.2976C9.48892 38.245 9.29779 38.1283 9.14844 37.9472C9.14844 37.6286 9.14844 37.3101 9.14844 36.9915C9.47946 35.6515 10.3077 34.7702 11.6332 34.3475C11.5463 34.2236 11.4932 34.0855 11.4739 33.9334C11.1298 31.6206 10.8007 29.3058 10.4864 26.9889C10.6066 25.3932 11.4348 24.3845 12.9711 23.9626C13.5535 23.8961 14.1269 23.9385 14.6913 24.0901C15.8298 24.6807 16.9766 25.2328 18.1317 25.7465C17.9549 25.0708 17.7637 24.4019 17.5583 23.7397C15.3523 22.7247 13.1437 21.7159 10.9323 20.7134C9.62289 19.7303 9.35743 18.5092 10.136 17.05C11.4229 15.8266 12.729 14.6268 14.0542 13.4503C14.1513 13.3861 14.2575 13.3542 14.3727 13.3548C14.6659 12.5622 15.1968 11.9781 15.9655 11.6027C16.6604 11.397 17.2975 11.5032 17.8768 11.9213C18.3593 12.361 18.7946 12.8388 19.1829 13.3548C19.4279 14.013 19.3854 14.6501 19.0555 15.2661C18.6835 15.7974 18.2057 16.201 17.622 16.4766C17.4671 16.7273 17.276 16.9503 17.0486 17.1456C16.6903 17.3975 16.3505 17.6736 16.0292 17.9738C17.6034 18.226 19.1749 18.4596 20.7438 18.6746C20.3149 17.6229 20.3256 16.5717 20.7757 15.5209C21.4878 13.9487 22.7089 13.2161 24.4391 13.3229C26.2973 13.7052 27.3166 14.8414 27.4972 16.7315C27.4325 17.8287 27.0503 18.795 26.3504 19.6303C26.3929 19.6515 26.4353 19.6728 26.4778 19.694C28.2985 19.9468 30.1142 20.2122 31.9251 20.4904C33.0776 19.8982 34.235 19.3142 35.3973 18.7383C35.726 18.1542 36.1508 17.6446 36.6716 17.2093C37.4149 16.7421 38.1581 16.7421 38.9014 17.2093C39.3156 17.6234 39.7297 18.0375 40.1438 18.4516C40.6416 19.2864 40.5991 20.0934 40.0164 20.8727C39.653 21.3032 39.2177 21.6323 38.7103 21.8602C38.6354 22.0313 38.5292 22.1799 38.3918 22.3062C37.075 23.1132 35.7584 23.9201 34.4417 24.7272C34.1557 24.8426 33.8585 24.9063 33.5497 24.9183C31.1499 24.9395 28.7502 24.9608 26.3504 24.982C25.871 25.5782 25.4038 26.1834 24.9487 26.7978C26.3292 27.488 27.7095 28.1782 29.09 28.8684C29.4282 29.4682 29.2689 29.8611 28.6121 30.047C27.009 29.3425 25.4268 28.5886 23.8657 27.7853C22.2304 27.7641 20.5952 27.7428 18.9599 27.7216C17.3345 26.8982 15.6993 26.0913 14.0542 25.3006C12.7552 25.1556 12.0119 25.729 11.8243 27.0208C12.1366 29.1111 12.4339 31.203 12.7162 33.2963C13.7781 33.2963 14.8399 33.2963 15.9018 33.2963C15.5572 32.0138 15.2175 30.7289 14.8824 29.4418C14.9295 28.8868 15.2269 28.6744 15.7744 28.8047C15.9761 28.879 16.1141 29.017 16.1885 29.2188C16.3415 29.7731 16.5007 30.3253 16.6663 30.8753C18.811 30.9283 20.9559 30.9602 23.1011 30.9708C27.217 32.8595 31.3263 34.7602 35.4292 36.673C35.8559 35.8193 36.2488 34.9486 36.6079 34.0608C35.3343 33.3816 34.0388 32.7339 32.7215 32.1176C32.3052 31.7301 32.3052 31.3478 32.7215 30.9708C32.9745 30.849 33.2293 30.849 33.486 30.9708C34.9592 31.6755 36.4246 32.3976 37.8821 33.137C37.9808 33.2144 38.055 33.3099 38.1051 33.4237C38.1188 33.6649 38.1293 33.8985 38.1369 34.1245C39.1032 34.5845 40.0589 35.0623 41.0039 35.558C41.3812 35.8787 41.636 36.2715 41.7684 36.7367ZM16.4115 12.8451C16.6121 12.8267 16.8032 12.8586 16.9849 12.9407C17.3374 13.2718 17.6666 13.6222 17.9724 13.9919C18.0359 14.2281 17.9934 14.4404 17.845 14.629C17.6219 14.9164 17.3459 15.1287 17.0167 15.2661C16.9276 15.2198 16.832 15.188 16.73 15.1705C16.3796 14.8201 16.0292 14.4697 15.6788 14.1193C15.57 13.8685 15.6124 13.6349 15.8062 13.4185C16.0013 13.2126 16.2031 13.0214 16.4115 12.8451ZM23.7382 14.629C25.1622 14.6409 25.948 15.3523 26.0955 16.7633C26.0764 17.9286 25.5455 18.7568 24.5028 19.248C23.4161 19.485 22.5772 19.1346 21.9862 18.1968C21.6372 17.2547 21.7434 16.3628 22.3047 15.5209C22.6817 15.046 23.1595 14.7487 23.7382 14.629ZM14.4364 14.8838C14.9333 15.3488 15.4217 15.8266 15.9018 16.3173C15.274 16.8709 14.6369 17.4124 13.9905 17.942C13.6125 18.5768 13.7824 18.9697 14.5002 19.1206C16.6289 19.4232 18.7526 19.7524 20.8712 20.1081C21.5721 22.1894 22.2729 24.2706 22.9737 26.3518C21.8547 26.4362 20.7398 26.4362 19.6289 26.3518C19.2142 24.5868 18.7894 22.8241 18.3547 21.0638C18.246 20.6027 17.9593 20.4221 17.4946 20.5223C17.163 20.6224 17.0144 20.8454 17.0486 21.1912C17.0675 21.4896 17.1312 21.7763 17.2397 22.0513C15.3342 21.2582 13.4441 20.4087 11.5695 19.5029C11.0336 19.0547 10.9168 18.5132 11.219 17.8782C12.3041 16.8886 13.3765 15.8905 14.4364 14.8838ZM37.6272 18.1968C37.7858 18.1839 37.9345 18.2158 38.0732 18.2924C38.4469 18.6448 38.7973 19.0164 39.1244 19.4073C39.1842 19.6227 39.1417 19.8138 38.997 19.9807C38.7899 20.2306 38.5457 20.4323 38.2643 20.586C38.1069 20.6309 37.9582 20.6097 37.8184 20.5223C37.5104 20.2143 37.2025 19.9064 36.8945 19.5984C36.7212 19.3985 36.7 19.1862 36.8308 18.9613C37.0896 18.6918 37.3551 18.4369 37.6272 18.1968ZM35.4611 20.1718C35.5081 20.1635 35.5506 20.1741 35.5885 20.2037C36.0577 20.6516 36.5037 21.1188 36.9264 21.6053C35.8965 22.2584 34.8558 22.8955 33.8046 23.5167C31.1316 23.6002 28.4558 23.6427 25.777 23.6441C25.6763 23.6891 25.5807 23.7422 25.4903 23.8034C25.0688 24.416 24.6229 25.0107 24.1524 25.5873C23.8892 24.872 23.6449 24.1499 23.4197 23.4211C23.9124 22.5846 24.4221 21.7564 24.9487 20.9364C25.1148 20.863 25.2847 20.8524 25.4584 20.9045C27.6565 21.2124 29.8545 21.5204 32.0525 21.8283C33.2375 21.3685 34.3736 20.8164 35.4611 20.1718ZM22.4003 20.363C22.7693 20.4929 23.1303 20.6203 23.4834 20.7452C23.2691 21.0553 23.0673 21.3738 22.8781 21.7009C22.6876 21.2677 22.5284 20.8217 22.4003 20.363ZM13.1622 34.6342C13.9268 34.6342 14.6913 34.6342 15.4558 34.6342C15.4664 35.3354 15.4558 36.0362 15.424 36.7367C15.4001 36.795 15.3683 36.8482 15.3284 36.896C14.5044 36.9685 13.6761 37.0004 12.8437 36.9915C12.0791 36.9809 11.3146 36.9703 10.5501 36.9597C10.9614 36.0634 11.6623 35.5963 12.6525 35.558C13.1036 35.413 13.2735 35.105 13.1622 34.6342ZM37.5635 35.3988C38.4193 35.7734 39.2687 36.1663 40.112 36.5774C40.5032 36.9585 40.5351 37.3726 40.2075 37.8198C39.9912 38.0557 39.7257 38.13 39.4111 38.0428C38.6254 37.6711 37.8396 37.2994 37.0538 36.9278C36.9829 36.8499 36.9722 36.765 37.022 36.673C37.1857 36.2395 37.3662 35.8148 37.5635 35.3988Z" fill="white"/>
<path opacity="0.884" fill-rule="evenodd" clip-rule="evenodd" d="M30.683 29.8554C31.2075 29.7646 31.526 29.9769 31.6387 30.4925C31.5987 30.904 31.3757 31.1377 30.9697 31.1933C30.4265 31.0959 30.2141 30.7774 30.3326 30.2376C30.4193 30.0769 30.536 29.9495 30.683 29.8554Z" fill="white"/>
<path opacity="0.881" fill-rule="evenodd" clip-rule="evenodd" d="M24.4367 36.9912C25.2172 36.9179 25.5039 37.2576 25.2968 38.0106C24.9145 38.4353 24.5322 38.4353 24.15 38.0106C23.9951 37.5946 24.0906 37.2548 24.4367 36.9912Z" fill="white"/>
</g>
<defs>
<clipPath id="clip0_836_2">
<rect width="32.62" height="32.62" fill="white" transform="translate(9.17969 9.18164)"/>
</clipPath>
</defs>
</svg>
