<svg width="92" height="92" viewBox="0 0 92 92" fill="none" xmlns="http://www.w3.org/2000/svg">
<circle cx="46" cy="46" r="45.5" fill="#FE9D3D" stroke="#FE9D3D" stroke-dasharray="2 2"/>
<g clip-path="url(#clip0_537_18)">
<path opacity="0.912" fill-rule="evenodd" clip-rule="evenodd" d="M80.0465 41.8258C80.0465 42.3892 80.0465 42.9525 80.0465 43.516C79.5341 44.8216 78.6412 45.8478 77.3678 46.5945C76.7725 46.8762 76.1773 47.158 75.582 47.4396C69.7304 49.0173 63.8628 50.5466 57.9791 52.0273C56.2941 54.5526 54.657 57.1081 53.0681 59.6936C51.6015 61.5645 49.7519 62.9931 47.5194 63.9794C45.2348 64.8395 42.9388 65.6644 40.6313 66.4544C39.3733 66.2489 38.9269 65.5648 39.292 64.402C41.1415 61.3838 42.9911 58.3656 44.8407 55.3473C44.7556 55.3071 44.6707 55.2668 44.5856 55.2266C40.1712 56.2229 35.7067 56.5247 31.1921 56.1321C29.9046 55.9532 28.6504 55.6513 27.4291 55.2266C26.7444 56.1582 26.1066 57.124 25.5158 58.1241C24.1051 59.3742 22.4256 59.9579 20.4773 59.8747C19.7378 59.5415 19.4615 58.9982 19.6481 58.2448C20.4953 56.0402 21.367 53.8469 22.2631 51.6651C19.7234 48.7195 17.2147 45.7616 14.7372 42.7916C14.7372 42.3892 14.7372 41.9867 14.7372 41.5843C14.9663 41.4282 15.1789 41.2471 15.375 41.041C16.9057 40.6386 18.4363 40.2361 19.967 39.8337C20.8696 39.67 21.72 39.7908 22.5182 40.1959C24.5783 41.9646 26.6192 43.7554 28.6409 45.5683C32.9402 44.4806 37.2347 43.374 41.5242 42.2483C38.1011 40.3264 34.657 38.435 31.1921 36.5741C30.8361 36.079 30.7297 35.5357 30.8732 34.9442C31.022 34.6424 31.2558 34.4211 31.5747 34.2802C34.4506 33.7908 37.3419 33.4084 40.2486 33.1333C41.9625 33.164 43.6207 33.4658 45.2234 34.0388C47.1529 34.9721 49.0663 35.9379 50.9634 36.9362C51.4354 37.9337 51.0952 38.3764 49.943 38.2643C48.2832 37.3176 46.5824 36.4323 44.8407 35.6082C43.0435 34.8926 41.1728 34.6109 39.2282 34.7631C37.1778 35.0145 35.1369 35.3163 33.1054 35.6686C36.694 37.7094 40.3082 39.7216 43.9478 41.705C50.617 39.9761 57.2924 38.2657 63.9743 36.5741C66.7816 35.7392 69.5029 35.9404 72.1379 37.1777C72.8817 37.5497 73.6046 37.9522 74.3064 38.385C76.3471 38.6382 78.0691 39.4632 79.4725 40.8599C79.635 41.209 79.8263 41.5309 80.0465 41.8258ZM41.2691 64.5227C44.1992 59.5401 47.1968 54.5903 50.2619 49.6731C50.7971 49.1303 50.8184 48.587 50.3257 48.0433C49.9774 47.9554 49.6372 47.9754 49.3052 48.1036C49.0355 48.4971 48.7379 48.8593 48.4123 49.1902C41.9531 50.794 35.5114 52.4438 29.0874 54.1401C28.7571 54.0546 28.4808 53.8937 28.2583 53.6571C28.7794 52.8721 29.2684 52.0672 29.7252 51.2426C29.9461 50.1855 29.4996 49.5818 28.3858 49.4317C27.262 49.5919 26.1778 49.8735 25.1331 50.2768C24.8191 50.8042 24.9254 51.2268 25.452 51.5444C26.2821 51.5184 27.09 51.3977 27.8756 51.1822C26.6477 53.124 25.4359 55.0758 24.2402 57.0375C23.4863 57.7523 22.5721 58.1546 21.4977 58.2448C22.3101 55.9984 23.1605 53.765 24.0489 51.5444C23.9562 51.3755 23.8924 51.1944 23.8575 51.0011C21.3974 48.1348 18.9525 45.2575 16.523 42.369C17.7986 42.047 19.0741 41.7252 20.3497 41.4032C20.6899 41.3227 21.03 41.3227 21.3702 41.4032C23.3645 43.0894 25.3204 44.8198 27.2378 46.5945C27.573 46.8922 27.9557 47.1135 28.3858 47.2585C40.6775 44.152 52.9655 41.0332 65.2499 37.9021C67.1941 37.4107 69.065 37.5918 70.8624 38.4454C69.7621 38.7589 68.6565 39.0607 67.5459 39.3508C67.1825 39.6598 67.0761 40.0421 67.227 40.4977C67.4303 40.7147 67.6854 40.8354 67.9923 40.8599C69.7035 40.4406 71.4044 39.9979 73.0946 39.5319C73.3608 39.6881 73.6373 39.829 73.9237 39.9545C75.1674 40.1208 76.3154 40.5232 77.3678 41.1617C78.5488 42.0056 78.6976 42.9915 77.8142 44.1196C76.6995 45.2127 75.3602 45.9571 73.7962 46.3531C68.9443 47.6377 64.0971 48.8249 59.2547 49.9146C59.6908 49.2906 60.0946 48.6467 60.4665 47.9829C60.5816 47.8379 60.7304 47.7372 60.9129 47.6811C65.9671 46.3746 71.0269 45.0868 76.0922 43.8178C76.4556 43.5088 76.562 43.1265 76.4111 42.6709C76.2078 42.4539 75.9527 42.3332 75.6458 42.3087C71.0115 43.4756 66.3769 44.6426 61.742 45.8098C61.4096 45.2369 60.9206 45.076 60.2751 45.3269C57.4685 49.5928 54.726 53.8987 52.0477 58.2448C50.6891 60.2663 48.8395 61.7351 46.4989 62.6514C44.7561 63.2883 43.0128 63.9121 41.2691 64.5227ZM47.0092 51.1219C47.1434 51.1039 47.2709 51.1239 47.3918 51.1822C46.9718 51.8363 46.5678 52.5003 46.18 53.1742C41.9559 54.3355 37.6402 54.8385 33.233 54.6833C37.8512 53.5305 42.4433 52.3434 47.0092 51.1219Z" fill="white"/>
<path opacity="0.82" fill-rule="evenodd" clip-rule="evenodd" d="M60.9128 40.9815C62.0637 40.9009 62.4038 41.3436 61.9333 42.3095C61.4751 42.6353 61.0498 42.595 60.6577 42.1887C60.4421 41.7216 60.5271 41.3193 60.9128 40.9815Z" fill="white"/>
<path opacity="0.815" fill-rule="evenodd" clip-rule="evenodd" d="M56.5761 42.0674C57.6406 42.0904 57.9382 42.5532 57.469 43.4558C56.497 43.8125 56.0506 43.5107 56.1297 42.5503C56.2177 42.3269 56.3664 42.1659 56.5761 42.0674Z" fill="white"/>
<path opacity="0.852" fill-rule="evenodd" clip-rule="evenodd" d="M51.984 43.2752C52.6891 43.1025 53.1144 43.3439 53.2596 43.9996C53.1127 44.6746 52.6876 44.896 51.984 44.6636C51.4808 44.2011 51.4808 43.7383 51.984 43.2752Z" fill="white"/>
<path opacity="0.821" fill-rule="evenodd" clip-rule="evenodd" d="M47.5194 44.3614C48.3706 44.2265 48.7745 44.5485 48.7312 45.3273C48.336 46.0298 47.8258 46.1103 47.2005 45.5687C47.0552 45.0954 47.1616 44.693 47.5194 44.3614Z" fill="white"/>
<path opacity="0.833" fill-rule="evenodd" clip-rule="evenodd" d="M43.1825 45.4478C44.1789 45.526 44.4767 45.9889 44.0754 46.8361C42.9814 47.2495 42.535 46.9074 42.736 45.8099C42.8821 45.6728 43.0309 45.5521 43.1825 45.4478Z" fill="white"/>
<path opacity="0.846" fill-rule="evenodd" clip-rule="evenodd" d="M38.5905 46.6552C39.7195 46.6392 40.0171 47.1021 39.4834 48.0436C38.4217 48.3267 38.0177 47.9444 38.2716 46.8966C38.3985 46.8283 38.5048 46.7478 38.5905 46.6552Z" fill="white"/>
</g>
<defs>
<clipPath id="clip0_537_18">
<rect width="65.0974" height="33.3211" fill="white" transform="translate(14.5617 33.0732)"/>
</clipPath>
</defs>
</svg>
